<svg width="46" height="46" viewBox="0 0 46 46" fill="none" xmlns="http://www.w3.org/2000/svg">
<g clip-path="url(#clip0_113_9663)">
<path d="M24.4375 34.5H31.625V37.375H14.375V34.5H21.5625V25.8319C17.5231 25.4438 14.375 22.0513 14.375 17.9113C14.375 17.4656 14.4181 17.0344 14.49 16.6031L15.8125 8.625H25.2137L23.4744 12.0894L22.6981 13.6562H25.5731L23.4744 17.8394L22.6981 19.4062H25.875L24.4375 24.0781L28.2756 18.8169L29.4113 17.25H26.1769L28.2756 13.0669L29.0519 11.5H26.1769L27.6144 8.625H30.1875L31.5244 16.6031C31.625 17.0344 31.625 17.4656 31.625 17.9113C31.625 22.0513 28.4769 25.4438 24.4375 25.8319V34.5Z" fill="black"/>
</g>
<defs>
<clipPath id="clip0_113_9663">
<rect width="17.25" height="28.75" fill="white" transform="translate(14.375 8.625)"/>
</clipPath>
</defs>
</svg>
