<svg width="44" height="44" viewBox="0 0 44 44" fill="none" xmlns="http://www.w3.org/2000/svg">
<g clip-path="url(#clip0_113_9672)">
<mask id="mask0_113_9672" style="mask-type:luminance" maskUnits="userSpaceOnUse" x="5" y="12" width="35" height="19">
<path d="M39.875 12.375H5.5V30.25H39.875V12.375Z" fill="white"/>
</mask>
<g mask="url(#mask0_113_9672)">
<path d="M14.3019 13.6241C14.3019 13.6241 14.3019 13.6403 14.3051 13.6499C14.3436 13.6499 14.3821 13.6499 14.4205 13.6499C16.3983 13.6499 18.376 13.6499 20.3538 13.6499C20.6839 13.6499 20.8442 13.8081 20.8442 14.1405C20.8442 16.429 20.8442 18.7142 20.8442 21.0026C20.8442 21.3125 20.6455 21.4965 20.3538 21.4965C17.2894 21.49 14.225 21.4932 11.1606 21.49C11.0676 21.49 11.042 21.5126 11.042 21.6095C11.0452 22.5681 11.0452 23.5235 11.042 24.4821C11.042 24.566 11.0644 24.5854 11.1446 24.5854C13.6127 24.5854 16.0809 24.5854 18.5523 24.5854C18.6068 24.5854 18.6517 24.5725 18.6998 24.5434C19.9435 23.814 21.1872 23.814 22.4309 24.5434C22.4822 24.5725 22.5302 24.5886 22.5879 24.5886C23.5207 24.5886 24.4535 24.5886 25.3831 24.5886C25.476 24.5886 25.5017 24.5693 25.5017 24.4724C25.5017 22.2808 25.5017 20.0924 25.5017 17.9008C25.5017 16.5 26.6268 15.3703 28.018 15.3703C28.7969 15.3703 29.5726 15.3703 30.3515 15.3703C30.4445 15.3703 30.5373 15.3735 30.6272 15.3832C31.9125 15.5349 32.8549 16.6065 32.8549 17.9073C32.8549 20.0957 32.8549 22.2808 32.8549 24.4692C32.8549 24.566 32.8805 24.5854 32.9735 24.5854C34.1979 24.5854 35.4225 24.5822 36.6502 24.5854C36.7496 24.5854 36.7656 24.5563 36.7656 24.466C36.7656 23.3589 36.7656 22.255 36.7656 21.1479C36.7656 18.9466 36.7656 16.7485 36.7656 14.5472C36.7656 14.3826 36.7527 14.218 36.7174 14.0566C36.4931 13.0625 35.6436 12.375 34.6307 12.375C29.2135 12.375 23.7997 12.375 18.3824 12.375C17.2701 12.375 16.2091 12.6171 15.2058 13.1012C14.8917 13.2529 14.5904 13.4272 14.3019 13.6241Z" fill="black"/>
<path d="M15.5234 20.6509C16.9819 20.6509 18.4435 20.6509 19.902 20.6509C19.9853 20.6509 20.011 20.6316 20.011 20.5444C20.011 18.5594 20.011 16.5744 20.011 14.5893C20.011 14.5151 19.995 14.4893 19.9148 14.4893C17.7191 14.4893 15.5202 14.4893 13.3245 14.4893C13.27 14.4893 13.2315 14.5022 13.1962 14.5441C13.1001 14.6507 13.0007 14.7507 12.9078 14.8572C11.882 16.0353 11.273 17.4039 11.0935 18.9628C11.0326 19.4857 11.055 20.0119 11.0454 20.5347C11.0454 20.6316 11.0743 20.6509 11.164 20.6509C12.6161 20.6509 14.0713 20.6509 15.5234 20.6509Z" fill="black"/>
<path d="M17.7417 24.3688C17.7064 24.3688 17.6872 24.3623 17.6679 24.3623C15.485 24.3623 13.3054 24.3623 11.1225 24.3623C11.0519 24.3623 11.0327 24.3849 11.0519 24.5108C11.2731 26.0698 12.1161 27.2543 13.0553 27.264C14.3664 27.2801 15.6742 27.264 16.9852 27.2705C17.0493 27.2705 17.0685 27.235 17.0782 27.1285C17.1519 26.2699 17.8635 24.9885 18.5911 24.5786C18.7033 24.5172 17.6904 24.5076 17.7449 24.3688H17.7417Z" fill="black"/>
<path d="M34.82 24.4756C34.198 24.4756 33.5762 24.4756 32.9543 24.4756C32.8871 24.4756 32.855 24.4917 32.855 24.6144C32.8582 25.4084 32.8582 26.1992 32.855 26.9932C32.855 27.1029 32.8775 27.132 32.9447 27.132C33.5217 27.1288 34.1019 27.1384 34.6789 27.1288C35.6694 27.1094 36.5029 26.1024 36.7464 24.6531C36.7657 24.5391 36.7357 24.482 36.6567 24.482C36.0445 24.482 35.4322 24.482 34.8168 24.482L34.82 24.4756Z" fill="black"/>
<path d="M24.4502 25.4249C24.1329 25.4249 23.8156 25.4249 23.4982 25.4249C23.4693 25.4249 23.431 25.4088 23.4148 25.4411C23.4021 25.4669 23.4373 25.4895 23.4533 25.5121C23.7771 25.9801 23.9822 26.4933 24.0559 27.0582C24.0655 27.1195 24.0912 27.1324 24.1456 27.1324C24.5688 27.1324 24.9919 27.1324 25.4118 27.1324C25.4823 27.1324 25.5016 27.113 25.4985 27.042C25.4985 26.532 25.4985 26.0221 25.4985 25.5153C25.4985 25.4475 25.4792 25.4249 25.4118 25.4249C25.0913 25.4282 24.7707 25.4249 24.4502 25.4249Z" fill="black"/>
<path d="M32.0183 24.9925C32.0183 22.6266 32.0183 20.2575 32.0183 17.8916C32.0183 16.9556 31.2748 16.21 30.3451 16.21C29.5727 16.21 28.8034 16.21 28.0308 16.21C27.0756 16.21 26.332 16.9556 26.332 17.9174C26.332 19.4151 26.332 20.9127 26.332 22.4104C26.332 23.908 26.332 25.4864 26.332 27.0227C26.332 27.1099 26.3544 27.1293 26.4377 27.1293C28.2648 27.1293 30.092 27.1293 31.919 27.1293C32.0024 27.1293 32.0216 27.1034 32.0216 27.026C32.0183 26.3482 32.0216 25.6703 32.0216 24.9957L32.0183 24.9925ZM27.7969 21.1128C27.7969 21.3646 27.611 21.5518 27.3738 21.5486C27.1366 21.5486 26.9635 21.3614 26.9602 21.1064C26.9602 20.9063 26.9602 20.7029 26.9602 20.5028C26.9602 20.3027 26.9602 20.0929 26.9602 19.8895C26.9602 19.6378 27.1429 19.4506 27.3801 19.4538C27.6142 19.4538 27.7937 19.641 27.7937 19.8863C27.7937 20.2962 27.7937 20.7061 27.7937 21.1161L27.7969 21.1128Z" fill="black"/>
<path d="M20.5753 26.667C20.0913 26.667 19.6938 27.0608 19.6938 27.5449C19.6938 28.0323 20.0849 28.4293 20.5721 28.4293C21.0497 28.4293 21.444 28.0355 21.4504 27.5546C21.4536 27.0672 21.0626 26.667 20.5785 26.667H20.5753Z" fill="black"/>
<path d="M20.4853 24.8437C19.014 24.8824 17.8472 26.1348 17.8857 27.6421C17.921 29.1075 19.1615 30.2888 20.6391 30.2501C22.1329 30.2114 23.2581 28.9719 23.2548 27.5517C23.2548 26.0185 21.995 24.8049 20.4885 24.8437H20.4853ZM20.5622 29.2721C19.6102 29.2688 18.8537 28.4942 18.8569 27.5291C18.8601 26.5931 19.6359 25.8184 20.5718 25.8217C21.5206 25.8217 22.2867 26.6028 22.2803 27.5614C22.2771 28.5071 21.5046 29.2753 20.5622 29.2721Z" fill="black"/>
<path d="M6.4424 25.0889H5.5609C5.52727 25.0889 5.5 25.1163 5.5 25.1502V28.4134C5.5 28.4473 5.52727 28.4747 5.5609 28.4747H6.4424C6.47603 28.4747 6.5033 28.4473 6.5033 28.4134V25.1502C6.5033 25.1163 6.47603 25.0889 6.4424 25.0889Z" fill="black"/>
<path d="M39.814 23.501H38.9324C38.8987 23.501 38.8716 23.5284 38.8716 23.5623V26.8255C38.8716 26.8594 38.8987 26.8868 38.9324 26.8868H39.814C39.8475 26.8868 39.8748 26.8594 39.8748 26.8255V23.5623C39.8748 23.5284 39.8475 23.501 39.814 23.501Z" fill="black"/>
<path d="M13.5038 27.1671V26.4022C13.5038 26.3683 13.4765 26.3408 13.4429 26.3408H6.14733C6.11369 26.3408 6.08643 26.3683 6.08643 26.4022V27.1671C6.08643 27.201 6.11369 27.2284 6.14733 27.2284H13.4429C13.4765 27.2284 13.5038 27.201 13.5038 27.1671Z" fill="black"/>
<path d="M39.8751 27.048V26.283C39.8751 26.2491 39.8477 26.2217 39.8142 26.2217H34.2015C34.1678 26.2217 34.1406 26.2491 34.1406 26.283V27.048C34.1406 27.0818 34.1678 27.1093 34.2015 27.1093H39.8142C39.8477 27.1093 39.8751 27.0818 39.8751 27.048Z" fill="black"/>
</g>
</g>
<defs>
<clipPath id="clip0_113_9672">
<rect width="34.375" height="17.875" fill="white" transform="translate(5.5 12.375)"/>
</clipPath>
</defs>
</svg>
