<svg width="44" height="44" viewBox="0 0 44 44" fill="none" xmlns="http://www.w3.org/2000/svg">
<g clip-path="url(#clip0_113_9693)">
<path d="M34.2218 16.8661H31.1667L30.4033 12.9059C29.945 11 27.8825 11 26.7366 11H17.2634C16.1176 11 13.9792 11 13.5967 12.9072L12.8333 16.8661H9.77827C8.9375 16.8661 8.25 17.5261 8.25 18.3333C8.25 19.1405 8.9375 19.8006 9.77827 19.8006H11.1533C10.7708 20.1663 10.5417 20.6806 10.5417 21.2664V27.1338C10.5417 28.3068 11.5342 29.334 12.8333 29.334H13.5967V31.167C13.5967 32.1942 14.4375 33 15.506 33C16.5759 33 17.4152 32.1929 17.4152 31.167L17.4167 29.334H26.5833V31.167C26.5833 32.1942 27.4241 33 28.4926 33C29.5625 33 30.4018 32.1929 30.4018 31.167L30.4033 29.334H31.1667C32.4658 29.334 33.4583 28.3068 33.4583 27.1338V21.2664C33.4583 20.6792 33.2292 20.1663 32.8467 19.7992L34.2217 19.8006C35.0625 19.8006 35.75 19.1405 35.75 18.3333C35.75 17.5261 35.0626 16.8661 34.2218 16.8661ZM27.5 13.9331L28.57 19.0663H15.4301L16.5 13.9331H27.5ZM15.125 24.2009C14.2842 24.2009 13.5967 23.5408 13.5967 22.7336C13.5967 21.9265 14.2842 21.2664 15.125 21.2664C15.9658 21.2664 16.6533 21.9265 16.6533 22.7336C16.6533 23.5408 15.9658 24.2009 15.125 24.2009ZM28.875 24.2009C28.0343 24.2009 27.3468 23.5408 27.3468 22.7336C27.3468 21.9265 28.0343 21.2664 28.875 21.2664C29.7158 21.2664 30.4033 21.9265 30.4033 22.7336C30.4033 23.5408 29.7158 24.2009 28.875 24.2009Z" fill="black"/>
</g>
<defs>
<clipPath id="clip0_113_9693">
<rect width="27.5" height="22" fill="white" transform="translate(8.25 11)"/>
</clipPath>
</defs>
</svg>
