<svg width="46" height="46" viewBox="0 0 46 46" fill="none" xmlns="http://www.w3.org/2000/svg">
<g clip-path="url(#clip0_113_9666)">
<path d="M9.04547 33.6123L22.8455 19.8123L20.833 17.7711L19.798 18.7917C19.2373 19.3523 18.3317 19.3523 17.7711 18.7917L16.7505 17.7711C16.1898 17.2105 16.1898 16.3048 16.7505 15.7442L24.8867 7.60797C25.4473 7.04734 26.353 7.04734 26.9136 7.60797L27.9342 8.62859C28.4948 9.18922 28.4948 10.0948 27.9342 10.6555L26.9136 11.6473L28.9548 13.703C29.5155 13.1423 30.4211 13.1423 30.9817 13.703C31.5423 14.2636 31.5423 15.1836 30.9817 15.7442L33.0086 17.7711L34.0292 16.7505C34.5898 16.1898 35.5098 16.1898 36.0705 16.7505L37.0767 17.7711C37.6373 18.3317 37.6373 19.2517 37.0767 19.8123L28.9548 27.9342C28.3942 28.4948 27.4742 28.4948 26.9136 27.9342L25.9073 26.928C25.3323 26.3673 25.3323 25.4473 25.9073 24.8867L26.9136 23.8661L24.8867 21.8392L11.0723 35.6536C10.5117 36.2142 9.60609 36.2142 9.04547 35.6536C8.48484 35.093 8.48484 34.173 9.04547 33.6123ZM34.4892 31.7723C35.2517 31.7723 35.9829 32.0752 36.5221 32.6144C37.0613 33.1536 37.3642 33.8849 37.3642 34.6473V36.0848H22.9892V34.6473C22.9892 33.8849 23.2921 33.1536 23.8313 32.6144C24.3705 32.0752 25.1018 31.7723 25.8642 31.7723H34.4892Z" fill="black"/>
</g>
<defs>
<clipPath id="clip0_113_9666">
<rect width="30.1875" height="30.1875" fill="white" transform="translate(8.625 7.1875)"/>
</clipPath>
</defs>
</svg>
