<svg width="132" height="33" viewBox="0 0 132 33" fill="none" xmlns="http://www.w3.org/2000/svg">
<g clip-path="url(#clip0_1555_550)">
<path d="M11.9947 17.2797H7.50041L9.89408 9.46976L11.9947 17.2797ZM5.16929 25.8864L6.70361 20.7434H12.7586L14.1941 25.8732H19.7915L14.2304 6.31551C13.9011 5.15983 13.2097 4.62643 11.9947 4.62643H4.05641V6.47355H4.71492C5.54464 6.47355 5.99242 6.8028 5.99242 7.43168C5.99242 7.84983 5.90023 8.19884 5.57098 9.15039L0 25.8864H5.16929Z" fill="#003781"/>
<path d="M26.2685 25.8864V6.25624C26.2685 5.23226 25.6693 4.62643 24.6782 4.62643H19.7559V6.47355H20.0851C20.9115 6.47355 21.2638 6.82585 21.2638 7.66216V25.8864H26.2685Z" fill="#003781"/>
<path d="M34.7749 25.8864V6.25624C34.7749 5.23226 34.1657 4.62643 33.1813 4.62643H28.2754V6.47355H28.6046C29.4344 6.47355 29.7867 6.82585 29.7867 7.66216V25.8864H34.7749Z" fill="#003781"/>
<path d="M43.5044 6.56548C43.5044 5.13981 42.4475 4.2607 40.6366 4.2607C38.8257 4.2607 37.7623 5.12334 37.7623 6.56548C37.7623 8.00761 38.8521 8.87025 40.6366 8.87025C42.4212 8.87025 43.5044 8.01419 43.5044 6.56548ZM43.409 25.8861V11.5767C43.409 10.556 42.8031 9.9535 41.8121 9.9535H36.9688V11.7644H37.2552C38.0816 11.7644 38.4339 12.1463 38.4339 12.9761V25.8861H43.409Z" fill="#003781"/>
<path d="M54.3659 18.2343V21.3326C53.5329 22.192 52.5188 22.7188 51.6594 22.7188C50.8001 22.7188 50.4478 22.2776 50.4478 21.0725C50.4478 19.8674 50.698 19.3571 51.5936 19.0114C52.4853 18.6484 53.4154 18.3877 54.3659 18.2343ZM47.636 14.5138C49.1654 13.755 50.8389 13.3307 52.5451 13.2692C53.8885 13.2692 54.3659 13.7466 54.3659 15.1394V15.495C52.3278 15.8242 51.6891 15.9493 50.54 16.2028C49.8964 16.3446 49.2663 16.5418 48.6566 16.7922C46.6449 17.5989 45.6934 19.153 45.6934 21.5401C45.6934 24.5692 47.0104 26.0311 49.707 26.0311C50.6242 26.0348 51.5338 25.8639 52.3871 25.5273C53.1611 25.175 53.8807 24.7138 54.524 24.1576V24.3815C54.524 25.3693 55.031 25.873 56.0221 25.873H60.5822V24.1708H60.3583C59.499 24.1708 59.1829 23.7856 59.1829 22.7682V15.1789C59.1829 11.1323 57.777 9.72313 53.7239 9.72313C52.4389 9.72954 51.1588 9.88085 49.9078 10.1742C48.7259 10.4378 47.5873 10.8679 46.5264 11.4517L47.636 14.5138Z" fill="#003781"/>
<path d="M67.8406 25.8867V15.1135C68.6736 14.1883 69.5297 13.7702 70.5174 13.7702C71.5743 13.7702 71.8344 14.1883 71.8344 15.7918V25.8867H76.8062V15.0543C76.8062 12.5322 76.6251 11.7354 75.8184 10.8793C75.1599 10.1385 74.1294 9.76317 72.8156 9.76317C70.8697 9.76317 69.5 10.3657 67.6595 12.0877V11.4522C67.6595 10.4645 67.1426 9.95414 66.1252 9.95414H61.4004V11.765H61.6868C62.5133 11.765 62.8689 12.147 62.8689 12.9767V25.8867H67.8406Z" fill="#003781"/>
<path d="M91.5542 22.5409H84.6169L91.2513 13.2395V9.94695H80.8469C79.6682 9.94695 79.1249 10.4869 79.1249 11.6689V14.5664H80.972V14.2832C80.972 13.549 81.3539 13.2 82.1474 13.2H85.7231L79.0195 22.6068V25.8993H91.5312L91.5542 22.5409Z" fill="#003781"/>
<path d="M117.655 25.482V7.46849C117.655 6.03294 117.144 5.54894 115.751 5.54894H111.534V7.57385H111.787C112.749 7.57385 112.936 7.79116 112.936 8.95013V25.482H117.655ZM119.735 25.482H124.417V11.4525C124.417 10.0433 123.874 9.53621 122.501 9.53621H119.735V25.482ZM110.869 25.482V9.54938H108.093C106.72 9.54938 106.183 10.0564 106.183 11.4656V25.482H110.869ZM128.849 16.3254C128.849 24.2637 123.14 30.0356 115.3 30.0356C107.461 30.0356 101.738 24.2637 101.738 16.3254C101.738 8.38711 107.458 2.61528 115.3 2.61528C123.143 2.61528 128.849 8.42003 128.849 16.3254ZM131.621 16.3254C131.621 6.99107 124.638 0.00100708 115.3 0.00100708C105.963 0.00100708 98.9727 6.99107 98.9727 16.3254C98.9727 25.6598 105.956 32.6466 115.3 32.6466C124.645 32.6466 131.621 25.6828 131.621 16.3254Z" fill="#003781"/>
</g>
<defs>
<clipPath id="clip0_1555_550">
<rect width="131.623" height="32.6467" fill="white"/>
</clipPath>
</defs>
</svg>
