<svg width="140" height="42" viewBox="0 0 140 42" fill="none" xmlns="http://www.w3.org/2000/svg">
<path d="M22.9235 40.7157C34.0726 40.7157 43.1108 31.6776 43.1108 20.5285C43.1108 9.37943 34.0726 0.341309 22.9235 0.341309C11.7745 0.341309 2.73633 9.37943 2.73633 20.5285C2.73633 31.6776 11.7745 40.7157 22.9235 40.7157Z" fill="white"/>
<path d="M21.1458 16.2865C21.488 16.2865 21.8985 16.4918 22.1038 16.7655L28.5364 26.4143L31.0683 13.7545H16.2188V16.218H21.1458V16.2865Z" fill="url(#paint0_linear_1555_559)"/>
<path d="M39.6223 10.5374C41.0594 14.5749 40.4435 19.0914 38.0484 22.1023C37.0903 23.2657 35.5849 24.429 33.8057 25.3186L32.7107 30.5194C32.6423 30.8615 32.3002 31.1353 31.958 31.1353H26.7572C26.4151 31.1353 26.0045 30.93 25.7992 30.6562L19.4351 21.0074L18.9561 23.2657L17.4506 30.5878C17.4506 30.8615 17.1084 31.1353 16.7663 31.1353H16.1504C16.1504 35.5833 22.0355 40.5788 31.8211 37.8415C38.1168 34.6252 42.428 28.0558 42.428 20.5284C42.3596 16.9016 41.4015 13.48 39.6223 10.5374Z" fill="url(#paint1_linear_1555_559)"/>
<path d="M4.24414 23.4033C4.24414 16.1496 9.23962 13.7545 14.5088 13.7545H16.288V16.218H16.0143C15.6722 16.218 15.33 16.4918 15.2616 16.8339L15.0563 17.5867L12.4559 30.5202C12.3875 30.8623 12.5928 31.1361 12.9349 31.1361H16.1512C16.1512 35.5841 22.0363 40.5796 31.8219 37.8423C29.1531 39.2109 26.1421 39.9637 22.9259 39.9637C11.7716 39.9637 4.24414 30.7939 4.24414 23.4033Z" fill="url(#paint2_linear_1555_559)"/>
<path d="M33.804 25.3196C35.5832 24.4985 37.0887 23.3351 38.0467 22.1034C40.5102 19.0924 41.0577 14.5759 39.6206 10.5385C36.7465 5.81673 31.9563 2.32673 26.2765 1.3687C22.4444 1.09497 18.8175 2.12144 16.9015 4.6534C16.0119 5.81673 15.875 7.39065 16.2856 9.23829H31.4089C31.751 9.23829 32.1616 9.44358 32.3669 9.71731L35.5832 14.7128C35.7885 14.9865 35.8569 15.4655 35.7885 15.8077L33.804 25.3196Z" fill="url(#paint3_linear_1555_559)"/>
<path d="M26.2766 1.36836C22.4445 1.09464 18.8176 2.1211 16.9016 4.65306C16.012 5.81639 15.8751 7.39031 16.2857 9.23795H8.07393C7.18433 9.23795 7.32119 8.8958 8.0055 8.00619C11.5639 3.76345 16.9016 1.09464 22.9235 1.09464C24.0868 1.09464 25.1817 1.16307 26.2766 1.36836Z" fill="url(#paint4_linear_1555_559)"/>
<path d="M12.4554 30.5211L15.0558 17.5876H13.1397C12.7975 17.5876 12.4554 17.8613 12.3869 18.2035L9.78655 30.5211C9.71812 30.8632 9.92341 31.137 10.2656 31.137H12.866C12.5922 31.137 12.3869 30.8632 12.4554 30.5211Z" fill="url(#paint5_linear_1555_559)"/>
<path d="M24.7033 31.1371H26.7562C26.4141 31.1371 26.0035 30.9318 25.7982 30.6581L19.4341 21.0092L18.9551 23.2675L23.6768 30.5896C23.8821 30.8633 24.3611 31.1371 24.7033 31.1371Z" fill="url(#paint6_linear_1555_559)"/>
<path d="M76.0938 13.4802C76.0938 11.222 77.4624 9.44278 79.789 9.44278C82.1157 9.44278 83.4843 11.222 83.4843 13.4802C83.4843 15.8753 81.9788 17.5177 79.789 17.5177C77.5308 17.5177 76.0938 15.8069 76.0938 13.4802ZM81.6367 13.4802C81.6367 11.9747 80.8839 10.9483 79.7206 10.9483C78.5573 10.9483 77.873 12.0432 77.873 13.4802C77.873 14.8488 78.4888 16.0806 79.789 16.0806C80.8839 16.0122 81.6367 14.9857 81.6367 13.4802Z" fill="black"/>
<path d="M50.844 17.3133C50.7071 17.3133 50.6387 17.2448 50.6387 17.108V9.85427C50.6387 9.71741 50.7071 9.64898 50.844 9.64898H51.9389C52.0757 9.64898 52.1442 9.78584 52.1442 9.85427L52.281 10.607C52.76 9.99114 53.6496 9.44369 54.6077 9.44369C56.0447 9.44369 57.2081 10.3333 57.2081 12.4547V17.1764C57.2081 17.3133 57.1396 17.3817 57.0028 17.3817H55.7026C55.5657 17.3817 55.4973 17.3133 55.4973 17.1764V12.66C55.4973 11.4282 54.813 11.0176 54.1287 11.0176C53.2391 11.0176 52.4179 11.7703 52.4179 13.2758V17.108C52.4179 17.2448 52.3495 17.3133 52.2126 17.3133H50.844Z" fill="black"/>
<path d="M50.844 31.4791C50.7071 31.4791 50.6387 31.4106 50.6387 31.2738V23.9516C50.6387 23.8148 50.7071 23.7463 50.844 23.7463H51.9389C52.0757 23.7463 52.1442 23.8832 52.1442 23.9516L52.2126 24.7044C52.6916 24.0885 53.5812 23.541 54.5393 23.541C55.9763 23.541 57.1396 24.4306 57.1396 26.552V31.2738C57.1396 31.4106 57.0712 31.4791 56.9343 31.4791H55.6342C55.4973 31.4791 55.4289 31.4106 55.4289 31.2738V26.8257C55.4289 25.5255 54.7445 25.1834 54.0602 25.1834C53.1706 25.1834 52.3495 25.9361 52.3495 27.4416V31.2738C52.3495 31.4106 52.281 31.4791 52.1442 31.4791H50.844Z" fill="black"/>
<path d="M85.1272 17.3124C84.9903 17.3124 84.9219 17.2439 84.9219 17.1071V9.85337C84.9219 9.7165 84.9903 9.64807 85.1272 9.64807H86.2221C86.3589 9.64807 86.4274 9.78494 86.4274 9.85337L86.4958 10.6061C86.9748 9.99023 87.8644 9.44278 88.8225 9.44278C90.2595 9.44278 91.4228 10.3324 91.4228 12.4538V17.1755C91.4228 17.3124 91.3544 17.3808 91.2176 17.3808H89.9174C89.7805 17.3808 89.7121 17.3124 89.7121 17.1755V12.659C89.7121 11.4273 89.0277 11.0167 88.3434 11.0167C87.4538 11.0167 86.6327 11.7694 86.6327 13.2749V17.1071C86.6327 17.2439 86.5642 17.3124 86.4274 17.3124H85.1272Z" fill="black"/>
<path d="M62.203 10.8798C63.0241 10.8798 63.8453 11.4957 63.8453 13.2065V13.5487C63.8453 15.5332 62.8873 16.0122 62.2714 16.0122C61.1081 16.0122 60.4922 14.7804 60.4922 13.4118C60.4237 11.9063 61.1765 10.8798 62.203 10.8798ZM61.8608 9.44278C60.2185 9.44278 58.6445 10.8114 58.6445 13.4802C58.6445 15.67 59.8079 17.5177 61.8608 17.5177C62.7504 17.5177 63.5716 16.9702 63.9137 16.3543L64.0506 17.1071C64.0506 17.2439 64.1875 17.3124 64.2559 17.3124H65.3508C65.4877 17.3124 65.5561 17.2439 65.5561 17.1071V9.85337C65.5561 9.7165 65.4877 9.64807 65.3508 9.64807H64.3243C64.1875 9.64807 64.119 9.78494 64.119 9.85337L64.0506 10.5377C63.5032 9.9218 62.8188 9.44278 61.8608 9.44278Z" fill="black"/>
<path d="M96.4881 25.0465C97.3093 25.0465 98.1305 25.6624 98.1305 27.3048V27.7153C98.1305 29.6999 97.1724 30.1789 96.5565 30.1789C95.3932 30.1789 94.7773 28.9471 94.7773 27.5785C94.7089 26.073 95.4616 25.0465 96.4881 25.0465ZM96.146 23.541C94.5036 23.541 92.9297 24.9097 92.9297 27.5785C92.9297 29.8367 94.093 31.6159 96.146 31.6159C97.0356 31.6159 97.8567 31.0685 98.1989 30.4526L98.3358 31.2053C98.3358 31.3422 98.4726 31.4106 98.541 31.4106H99.636C99.7728 31.4106 99.8412 31.3422 99.8412 31.2053V23.9516C99.8412 23.8148 99.7728 23.7463 99.636 23.7463H98.6779C98.541 23.7463 98.4726 23.8832 98.4726 23.9516L98.4042 24.6359C97.7883 24.0201 97.104 23.541 96.146 23.541Z" fill="black"/>
<path d="M96.4197 10.8798C97.1724 10.8798 98.062 11.4957 98.062 13.2065V13.5487C98.062 15.5332 97.104 16.0122 96.4881 16.0122C95.3248 16.0122 94.7089 14.7804 94.7089 13.4118C94.6405 11.9063 95.3932 10.8798 96.4197 10.8798ZM96.146 9.44278C94.5036 9.44278 92.9297 10.8114 92.9297 13.4802C92.9297 15.67 94.093 17.5177 96.146 17.5177C97.0356 17.5177 97.8567 16.9702 98.1989 16.3543L98.3358 17.1071C98.3358 17.2439 98.4726 17.3124 98.541 17.3124H99.636C99.7728 17.3124 99.8412 17.2439 99.8412 17.1071V9.85337C99.8412 9.7165 99.7728 9.64807 99.636 9.64807H98.6095C98.4726 9.64807 98.4042 9.78494 98.4042 9.85337L98.3358 10.5377C97.7883 9.9218 97.104 9.44278 96.146 9.44278Z" fill="black"/>
<path d="M74.316 9.64839C74.4529 9.64839 74.5213 9.71682 74.5213 9.85369V17.1074C74.5213 17.2443 74.4529 17.3127 74.316 17.3127H73.0158C72.879 17.3127 72.8105 17.2443 72.8105 17.1074V9.99055C72.8105 9.85369 72.879 9.78525 73.0158 9.78525L74.316 9.64839Z" fill="black"/>
<path d="M103.193 6.43225C103.33 6.43225 103.398 6.50068 103.398 6.63754V17.1075C103.398 17.2444 103.33 17.3128 103.193 17.3128H101.893C101.756 17.3128 101.688 17.2444 101.688 17.1075V6.77441C101.688 6.63754 101.756 6.56911 101.893 6.56911L103.193 6.43225Z" fill="black"/>
<path d="M73.6983 8.62256C74.2652 8.62256 74.7248 8.163 74.7248 7.59609C74.7248 7.02919 74.2652 6.56963 73.6983 6.56963C73.1314 6.56963 72.6719 7.02919 72.6719 7.59609C72.6719 8.163 73.1314 8.62256 73.6983 8.62256Z" fill="black"/>
<path d="M71.0975 16.081C71.0975 15.9442 70.9606 15.8757 70.7553 15.9442C70.6185 16.0126 70.2763 16.081 70.0026 16.081C69.5236 16.081 69.2498 15.8757 69.2498 15.1914V11.0171H70.8922C71.0291 11.0171 71.0975 10.9487 71.0975 10.8118V9.8538C71.0975 9.71693 71.0291 9.6485 70.8922 9.6485H69.2498V7.59557C69.2498 7.4587 69.1814 7.32184 69.0446 7.39027L67.7444 7.4587C67.6075 7.4587 67.5391 7.59557 67.5391 7.664V15.3283C67.5391 16.5601 68.0865 17.5181 69.6604 17.5181C70.1395 17.5181 70.6869 17.4497 71.0975 17.2444C71.1659 17.1759 71.2344 17.1759 71.2344 17.0391L71.0975 16.081Z" fill="black"/>
<path d="M106.752 12.7961C106.889 11.9065 107.3 10.8116 108.463 10.8116C109.695 10.8116 110.105 11.7696 110.174 12.7961H106.752ZM108.6 17.5179C109.695 17.5179 110.584 17.2441 111.269 16.8335C111.406 16.7651 111.406 16.6283 111.406 16.5598L111.063 15.6702C110.995 15.5334 110.858 15.5334 110.79 15.5334C110.174 15.8071 109.49 16.0124 108.737 16.0124C107.437 16.0124 106.889 15.1228 106.752 14.0279H111.748C111.885 14.0279 111.953 13.9594 111.953 13.8226C111.953 13.6173 111.953 13.5488 111.953 13.3436C111.953 11.4275 110.995 9.37454 108.531 9.37454C106.273 9.37454 104.973 11.0853 104.973 13.4804C104.905 15.9439 106.342 17.5179 108.6 17.5179Z" fill="black"/>
<path d="M127.143 31.4791C127.006 31.4791 126.938 31.4106 126.938 31.2738V23.9516C126.938 23.8148 127.006 23.7463 127.143 23.7463H128.238C128.375 23.7463 128.443 23.8832 128.443 23.9516L128.511 24.7044C128.99 24.0885 129.88 23.541 130.838 23.541C132.275 23.541 133.438 24.4307 133.438 26.552V31.2738C133.438 31.4106 133.37 31.4791 133.233 31.4791H131.933C131.796 31.4791 131.728 31.4106 131.728 31.2738V26.8257C131.728 25.5256 131.043 25.1834 130.359 25.1834C129.469 25.1834 128.648 25.9361 128.648 27.4416V31.2738C128.648 31.4106 128.58 31.4791 128.443 31.4791H127.143Z" fill="black"/>
<path d="M102.03 31.4791C101.893 31.4791 101.824 31.4106 101.824 31.2738V23.9516C101.824 23.8148 101.893 23.7463 102.03 23.7463H103.124C103.261 23.7463 103.33 23.8832 103.33 23.9516L103.398 24.7044C103.877 24.0885 104.767 23.541 105.725 23.541C107.162 23.541 108.325 24.4307 108.325 26.552V31.2738C108.325 31.4106 108.257 31.4791 108.12 31.4791H106.82C106.683 31.4791 106.614 31.4106 106.614 31.2738V26.8257C106.614 25.5256 105.93 25.1834 105.246 25.1834C104.356 25.1834 103.535 25.9361 103.535 27.4416V31.2738C103.535 31.4106 103.467 31.4791 103.33 31.4791H102.03Z" fill="black"/>
<path d="M91.2184 20.5296C91.3552 20.5296 91.4237 20.598 91.4237 20.7349V31.2049C91.4237 31.3417 91.3552 31.4102 91.2184 31.4102H89.9182C89.7813 31.4102 89.7129 31.3417 89.7129 31.2049V20.8718C89.7129 20.7349 89.7813 20.6665 89.9182 20.6665L91.2184 20.5296Z" fill="black"/>
<path d="M60.4925 26.9619C60.6294 26.0723 61.0399 24.9774 62.2033 24.9774C63.435 24.9774 63.8456 25.9354 63.9141 26.9619H60.4925ZM62.3401 31.6152C63.435 31.6152 64.3246 31.3415 65.009 30.9309C65.1458 30.8625 65.1458 30.7256 65.1458 30.6572L64.8037 29.7676C64.7352 29.6307 64.5984 29.6307 64.5299 29.6307C63.9141 29.9044 63.2297 30.1097 62.477 30.1097C61.1768 30.1097 60.6294 29.2201 60.4925 28.1252H65.488C65.6248 28.1252 65.6933 28.0568 65.6933 27.9199C65.6933 27.7146 65.6933 27.6462 65.6933 27.4409C65.6933 25.5248 64.7352 23.4719 62.2717 23.4719C60.0135 23.4719 58.7133 25.1827 58.7133 27.5778C58.6448 30.0413 60.0819 31.6152 62.3401 31.6152Z" fill="black"/>
<path d="M77.3948 26.9619C77.5316 26.0723 77.9422 24.9774 79.1055 24.9774C80.3373 24.9774 80.7479 25.9354 80.8163 26.9619H77.3948ZM79.3108 31.6152C80.4057 31.6152 81.2953 31.3415 81.9797 30.9309C82.1165 30.8625 82.1165 30.7256 82.1165 30.6572L81.7744 29.7676C81.7059 29.6307 81.5691 29.6307 81.5006 29.6307C80.8848 29.9044 80.2004 30.1097 79.4477 30.1097C78.1475 30.1097 77.6001 29.2201 77.4632 28.1252H82.4587C82.5955 28.1252 82.664 28.0568 82.664 27.9199C82.664 27.7146 82.664 27.6462 82.664 27.4409C82.664 25.5248 81.7059 23.4719 79.2424 23.4719C76.9842 23.4719 75.684 25.1827 75.684 27.5778C75.6156 30.0413 77.0526 31.6152 79.3108 31.6152Z" fill="black"/>
<path d="M73.767 20.5296L72.4668 20.6665C72.3299 20.6665 72.2615 20.8033 72.2615 20.8718V24.4302C71.7824 23.9512 71.0297 23.5406 70.1401 23.5406C68.4977 23.5406 66.9238 24.9092 66.9238 27.578C66.9238 29.8363 68.0872 31.6155 70.1401 31.6155C71.0297 31.6155 71.9877 31.068 72.3983 30.4521L72.5352 31.2049C72.5352 31.3417 72.6721 31.4102 72.7405 31.4102H73.767C73.9038 31.4102 73.9722 31.3417 73.9722 31.2049V20.7349C73.9722 20.6665 73.9038 20.5296 73.767 20.5296ZM72.2615 27.7149C72.2615 29.6994 71.1666 30.1784 70.4823 30.1784C69.3189 30.1784 68.703 28.9466 68.703 27.578C68.703 26.0725 69.4558 25.0461 70.4823 25.0461C71.235 25.0461 72.2615 25.6619 72.2615 27.3043V27.7149Z" fill="black"/>
<path d="M120.235 26.9619C120.371 26.0723 120.782 24.9774 121.945 24.9774C123.177 24.9774 123.588 25.9354 123.656 26.9619H120.235ZM122.151 31.6152C123.246 31.6152 124.135 31.3415 124.819 30.9309C124.956 30.8625 124.956 30.7256 124.956 30.6572L124.614 29.7676C124.546 29.6307 124.409 29.6307 124.34 29.6307C123.725 29.9044 123.04 30.1097 122.288 30.1097C120.987 30.1097 120.44 29.2201 120.303 28.1252H125.299C125.435 28.1252 125.504 28.0568 125.504 27.9199C125.504 27.7146 125.504 27.6462 125.504 27.4409C125.504 25.5248 124.546 23.4719 122.082 23.4719C119.824 23.4719 118.524 25.1827 118.524 27.5778C118.455 30.0413 119.892 31.6152 122.151 31.6152Z" fill="black"/>
<path d="M116.742 20.5296L115.441 20.6665C115.304 20.6665 115.236 20.8033 115.236 20.8718V24.4302C114.757 23.9512 114.004 23.5406 113.115 23.5406C111.472 23.5406 109.898 24.9092 109.898 27.578C109.898 29.8363 111.062 31.6155 113.115 31.6155C114.004 31.6155 114.962 31.068 115.305 30.4521L115.441 31.2049C115.441 31.3417 115.578 31.4102 115.647 31.4102H116.673C116.81 31.4102 116.878 31.3417 116.878 31.2049V20.7349C116.947 20.6665 116.81 20.5296 116.742 20.5296ZM115.236 27.7149C115.236 29.6994 114.141 30.1784 113.457 30.1784C112.294 30.1784 111.678 28.9466 111.678 27.578C111.678 26.0725 112.43 25.0461 113.457 25.0461C114.21 25.0461 115.236 25.6619 115.236 27.3043V27.7149Z" fill="black"/>
<path d="M88.3423 23.8146C88.3423 23.6777 88.2738 23.6093 88.137 23.6093C87.1789 23.6093 86.2893 24.1567 85.7419 24.7726L85.6735 24.0199C85.6735 23.883 85.5366 23.8146 85.4682 23.8146H84.3733C84.2364 23.8146 84.168 23.883 84.168 24.0199V31.2736C84.168 31.4104 84.2364 31.4789 84.3733 31.4789H85.6735C85.8103 31.4789 85.8787 31.4104 85.8787 31.2736V27.5099C85.8787 25.9359 86.8368 25.3201 87.7264 25.3201C87.8633 25.3201 88.0001 25.3201 88.0685 25.3885C88.2738 25.3885 88.3423 25.3201 88.3423 25.1832V23.8146Z" fill="black"/>
<defs>
<linearGradient id="paint0_linear_1555_559" x1="32.056" y1="16.5769" x2="18.1468" y2="21.6394" gradientUnits="userSpaceOnUse">
<stop offset="0.3374" stop-color="#F4AA1C"/>
<stop offset="0.8466" stop-color="#ED8722"/>
</linearGradient>
<linearGradient id="paint1_linear_1555_559" x1="29.2635" y1="38.6135" x2="29.2635" y2="10.5376" gradientUnits="userSpaceOnUse">
<stop offset="0.0061" stop-color="#EC7E23"/>
<stop offset="0.2515" stop-color="#F09220"/>
<stop offset="0.7791" stop-color="#F09220"/>
<stop offset="0.9939" stop-color="#F19C1F"/>
</linearGradient>
<linearGradient id="paint2_linear_1555_559" x1="9.79665" y1="35.0789" x2="24.062" y2="23.1089" gradientUnits="userSpaceOnUse">
<stop offset="0.2147" stop-color="#E66124"/>
<stop offset="0.5399" stop-color="#E86C24"/>
<stop offset="0.816" stop-color="#ED8722"/>
</linearGradient>
<linearGradient id="paint3_linear_1555_559" x1="24.1013" y1="17.58" x2="34.3255" y2="4.74031" gradientUnits="userSpaceOnUse">
<stop offset="0.5153" stop-color="#F4AA1C"/>
<stop offset="0.8589" stop-color="#FCC90A"/>
</linearGradient>
<linearGradient id="paint4_linear_1555_559" x1="16.8665" y1="9.22823" x2="16.8665" y2="1.07294" gradientUnits="userSpaceOnUse">
<stop offset="0.0061" stop-color="#EC7E23"/>
<stop offset="0.2515" stop-color="#F09220"/>
<stop offset="0.7791" stop-color="#F09220"/>
<stop offset="0.9939" stop-color="#F19C1F"/>
</linearGradient>
<linearGradient id="paint5_linear_1555_559" x1="12.4338" y1="31.1324" x2="12.4338" y2="17.5782" gradientUnits="userSpaceOnUse">
<stop offset="0.3067" stop-color="#E76524"/>
<stop offset="0.6258" stop-color="#DF541A"/>
</linearGradient>
<linearGradient id="paint6_linear_1555_559" x1="22.8602" y1="31.1167" x2="22.8602" y2="20.9564" gradientUnits="userSpaceOnUse">
<stop stop-color="#F19C1F"/>
<stop offset="0.2945" stop-color="#E8721B"/>
</linearGradient>
</defs>
</svg>
