<svg width="129" height="32" viewBox="0 0 129 32" fill="none" xmlns="http://www.w3.org/2000/svg">
<g clip-path="url(#clip0_106_6103)">
<path d="M41.2398 22.5494C45.0655 22.5494 47.4216 20.5765 47.4216 17.7005C47.4216 11.4493 39.2103 13.1607 39.2103 9.99936C39.2103 9.09612 39.9101 8.45437 41.2864 8.45437C42.5928 8.45437 43.5026 9.11989 43.8991 10.5223L47.1649 9.23875C46.5585 6.98068 44.459 5.45947 41.4497 5.45947C37.8107 5.45947 35.7346 7.45607 35.7346 10.2845C35.7346 16.1555 43.9225 14.4917 43.9225 17.7956C43.9225 18.8652 43.0593 19.5069 41.5897 19.5069C39.9335 19.5069 38.7204 18.6275 38.3005 17.0349L35.0347 18.3185C35.8278 21.0282 38.1372 22.5494 41.2398 22.5494Z" fill="#092B5E"/>
<path d="M57.6388 9.73779V17.1537C57.6388 18.461 56.7058 19.4355 55.2828 19.4355C53.8365 19.4355 52.95 18.461 52.95 17.0824V9.73779H49.4976V17.5341C49.4976 20.3863 51.1305 22.5731 54.2564 22.5731C55.726 22.5731 56.9857 21.9789 57.8488 21.0756V22.264H61.0913V9.73779H57.6388Z" fill="#092B5E"/>
<path d="M67.0549 10.9499V9.73766H63.7891V22.2639H67.2415V15.371C67.2415 13.7071 68.4779 12.7326 70.5773 12.7326V9.42871C69.131 9.42871 67.8947 10.0467 67.0549 10.9499Z" fill="#092B5E"/>
<path d="M74.7712 17.0824H83.9859C84.0324 16.7735 84.0553 16.298 84.0553 15.7514C84.0553 12.6139 81.6997 9.45264 77.7336 9.45264C74.2113 9.45264 71.3887 12.3762 71.3887 16.0129C71.3887 19.7446 73.9781 22.5731 77.9671 22.5731C80.9761 22.5731 82.5623 21.3133 83.5187 19.8872L80.883 18.1045C80.3464 19.1028 79.577 19.6495 78.0603 19.6495C76.4275 19.6495 75.1678 18.7225 74.7712 17.0824ZM74.7245 14.7768C75.0744 13.0655 76.2408 12.1147 77.8275 12.1147C79.4136 12.1147 80.4861 13.1368 80.8128 14.7768H74.7245Z" fill="#092B5E"/>
<path d="M93.1708 9.45234C91.7014 9.45234 90.4649 9.95147 89.555 10.8309V4.88867H86.1025V22.2638H89.2985V20.9565C90.2084 21.9786 91.4908 22.5728 93.0777 22.5728C96.6233 22.5728 99.1895 19.7443 99.1895 16.0126C99.1895 12.2571 96.7164 9.45234 93.1708 9.45234ZM92.6106 19.4591C90.6977 19.4591 89.4153 18.0567 89.4153 16.0126C89.4153 13.9684 90.6977 12.5422 92.6106 12.5422C94.4303 12.5422 95.76 14.0159 95.76 16.0126C95.76 18.0091 94.4303 19.4591 92.6106 19.4591Z" fill="#092B5E"/>
<path d="M103.075 7.90756C104.335 7.90756 105.315 6.98054 105.315 5.67325C105.315 4.38972 104.335 3.43896 103.075 3.43896C101.815 3.43896 100.812 4.38972 100.812 5.67325C100.812 6.98054 101.815 7.90756 103.075 7.90756ZM101.325 22.264H104.778V9.73773H101.325V22.264Z" fill="#092B5E"/>
<path d="M110.748 10.9499V9.73766H107.481V22.2639H110.934V15.371C110.934 13.7071 112.17 12.7326 114.27 12.7326V9.42871C112.824 9.42871 111.587 10.0467 110.748 10.9499Z" fill="#092B5E"/>
<path d="M124.786 4.88867V10.8309C123.876 9.95147 122.639 9.45234 121.17 9.45234C117.647 9.45234 115.151 12.2571 115.151 16.0126C115.151 19.7443 117.718 22.5728 121.263 22.5728C122.849 22.5728 124.133 21.9786 125.042 20.9803V22.2638H128.238V4.88867H124.786ZM121.753 19.4591C119.91 19.4591 118.58 18.0091 118.58 16.0126C118.58 14.0159 119.91 12.5422 121.753 12.5422C123.642 12.5422 124.926 13.9684 124.926 16.0126C124.926 18.0567 123.642 19.4591 121.753 19.4591Z" fill="#092B5E"/>
<path d="M12.4932 0.285645H24.9862L12.4932 12.7557V0.285645Z" fill="#5245E9"/>
<path d="M6.24951 25.2261H12.4961L6.24951 31.461V25.2261Z" fill="#F5A936"/>
<path d="M0 18.9912H6.24655L0 25.2263V18.9912Z" fill="#F5A936"/>
<path d="M12.4932 12.7562V0.286133L24.9862 12.7562H12.4932Z" fill="#4891FF"/>
<path d="M0 12.7562V0.286133L12.4931 12.7562H0Z" fill="#2FCDFF"/>
<path d="M12.4931 12.7559V25.2259L0 12.7559H12.4931Z" fill="#4891FF"/>
<path d="M12.4932 12.7559H24.9862L12.4932 25.2259V12.7559Z" fill="#5245E9"/>
</g>
<defs>
<clipPath id="clip0_106_6103">
<rect width="129" height="32" fill="white"/>
</clipPath>
</defs>
</svg>
