<svg width="161" height="40" viewBox="0 0 161 40" fill="none" xmlns="http://www.w3.org/2000/svg">
<path d="M42.3164 14.0059H58.6042V17.038H52.191V34.1309H48.6759V17.038H42.2896L42.3164 14.0059ZM57.9065 19.5604H60.9119V22.3779H60.9655C61.0729 21.9754 61.2607 21.5997 61.529 21.224C61.7974 20.8484 62.1194 20.4995 62.5219 20.2044C62.8975 19.8824 63.3269 19.6409 63.8099 19.453C64.266 19.2652 64.749 19.1579 65.232 19.1579C65.6077 19.1579 65.876 19.1847 66.0102 19.1847C66.1444 19.2115 66.3054 19.2384 66.4395 19.2384V22.3242C66.2249 22.2705 65.9834 22.2437 65.7419 22.2169C65.5004 22.19 65.2857 22.1632 65.0442 22.1632C64.5075 22.1632 63.9977 22.2705 63.5147 22.4852C63.0317 22.6999 62.6292 23.0219 62.2535 23.4244C61.9047 23.8537 61.6095 24.3635 61.3949 24.9807C61.1802 25.5979 61.0729 26.3224 61.0729 27.1274V34.0504H57.8529L57.9065 19.5604ZM81.1979 34.1309H78.0315V32.0915H77.9779C77.5754 32.8429 76.985 33.4064 76.2069 33.8625C75.4287 34.3187 74.6237 34.5334 73.8187 34.5334C71.9135 34.5334 70.5182 34.0772 69.6595 33.1112C68.8009 32.172 68.3715 30.723 68.3715 28.8179V19.5604H71.5915V28.4959C71.5915 29.7839 71.833 30.6962 72.3429 31.206C72.8259 31.7427 73.5235 32.011 74.409 32.011C75.0799 32.011 75.6434 31.9037 76.0995 31.689C76.5557 31.4744 76.9314 31.206 77.1997 30.8572C77.4949 30.5084 77.6827 30.079 77.8169 29.596C77.951 29.113 78.0047 28.5764 78.0047 28.0129V19.5604H81.2247V34.1309H81.1979ZM86.6719 29.4619C86.7792 30.401 87.128 31.045 87.7452 31.4475C88.3624 31.8232 89.1137 32.011 89.9724 32.011C90.2675 32.011 90.6164 31.9842 90.992 31.9305C91.3677 31.8769 91.7434 31.7964 92.0654 31.6622C92.4142 31.528 92.6825 31.3402 92.8972 31.0718C93.1119 30.8035 93.2192 30.4815 93.1924 30.079C93.1655 29.6765 93.0314 29.3277 92.7362 29.0594C92.441 28.791 92.0922 28.6032 91.6629 28.4154C91.2335 28.2544 90.7237 28.1202 90.1602 28.0129C89.5967 27.9055 89.0332 27.7714 88.4429 27.6372C87.8525 27.503 87.2622 27.342 86.6987 27.1542C86.1352 26.9664 85.6522 26.7249 85.196 26.376C84.7667 26.054 84.391 25.6515 84.1495 25.1417C83.8812 24.6319 83.747 24.0415 83.747 23.2902C83.747 22.4852 83.9349 21.8412 84.3374 21.3045C84.713 20.7679 85.2229 20.3385 85.8132 20.0165C86.4035 19.6945 87.0744 19.453 87.7989 19.3189C88.5234 19.1847 89.221 19.131 89.865 19.131C90.6164 19.131 91.3409 19.2115 92.0117 19.3725C92.6825 19.5335 93.3265 19.775 93.8632 20.1507C94.4267 20.4995 94.8829 20.9825 95.2317 21.546C95.6074 22.1095 95.822 22.8072 95.9294 23.6122H92.5752C92.4142 22.834 92.0654 22.3242 91.5287 22.0559C90.9652 21.7875 90.348 21.6534 89.6235 21.6534C89.4089 21.6534 89.1137 21.6802 88.8185 21.707C88.4965 21.7607 88.2282 21.8144 87.933 21.9217C87.6647 22.029 87.4232 22.19 87.2354 22.3779C87.0475 22.5657 86.9402 22.834 86.9402 23.156C86.9402 23.5585 87.0744 23.8537 87.3427 24.0952C87.611 24.3367 87.9599 24.5245 88.416 24.7124C88.8454 24.8734 89.3552 25.0075 89.9187 25.1149C90.4822 25.2222 91.0725 25.3564 91.6629 25.4905C92.2532 25.6247 92.8167 25.7857 93.3802 25.9735C93.9437 26.1614 94.4535 26.4029 94.8829 26.7517C95.3122 27.0737 95.6879 27.4762 95.9562 27.9592C96.2245 28.4422 96.3587 29.0594 96.3587 29.757C96.3587 30.6157 96.1709 31.3402 95.7684 31.9574C95.3659 32.5477 94.856 33.0575 94.2389 33.4332C93.6217 33.8089 92.8972 34.0772 92.1459 34.265C91.3677 34.426 90.6164 34.5334 89.865 34.5334C88.9527 34.5334 88.094 34.426 87.3159 34.2114C86.5377 33.9967 85.84 33.6747 85.2765 33.2722C84.713 32.8429 84.2569 32.333 83.9349 31.689C83.6129 31.0719 83.425 30.3205 83.3982 29.435H86.645V29.4619H86.6719ZM97.271 19.5604H99.7129V15.1597H102.933V19.5335H105.831V21.9217H102.933V29.7034C102.933 30.0522 102.96 30.3205 102.987 30.5889C103.013 30.8304 103.094 31.045 103.174 31.206C103.282 31.367 103.443 31.5012 103.631 31.5817C103.845 31.6622 104.114 31.7159 104.489 31.7159C104.704 31.7159 104.945 31.7159 105.16 31.689C105.375 31.6622 105.616 31.6354 105.831 31.5817V34.0772C105.482 34.1309 105.133 34.1577 104.784 34.1845C104.436 34.2382 104.114 34.2382 103.738 34.2382C102.879 34.2382 102.208 34.1577 101.699 33.9967C101.189 33.8357 100.786 33.5942 100.491 33.299C100.196 32.977 100.008 32.6013 99.9007 32.1452C99.7934 31.689 99.7397 31.1255 99.7129 30.5352V21.9485H97.271V19.5067V19.5604ZM108.085 19.5604H111.117V21.546H111.171C111.627 20.6874 112.244 20.097 113.049 19.7214C113.854 19.3457 114.713 19.1579 115.679 19.1579C116.833 19.1579 117.825 19.3457 118.684 19.775C119.543 20.1775 120.24 20.7142 120.804 21.4387C121.367 22.1364 121.797 22.9682 122.065 23.9074C122.333 24.8465 122.494 25.8662 122.494 26.9127C122.494 27.9055 122.36 28.8447 122.119 29.757C121.85 30.6694 121.475 31.5012 120.965 32.1989C120.455 32.8965 119.811 33.46 119.006 33.8893C118.201 34.3187 117.289 34.5334 116.215 34.5334C115.759 34.5334 115.276 34.4797 114.82 34.3992C114.364 34.3187 113.908 34.1845 113.478 33.9967C113.049 33.8089 112.647 33.5674 112.298 33.2722C111.922 32.977 111.627 32.6282 111.385 32.2525H111.332V39.5243H108.112V19.5604H108.085ZM119.328 26.859C119.328 26.215 119.248 25.571 119.06 24.9539C118.899 24.3367 118.63 23.8 118.282 23.317C117.933 22.834 117.503 22.4584 117.02 22.1632C116.511 21.868 115.92 21.7339 115.276 21.7339C113.935 21.7339 112.915 22.19 112.217 23.1292C111.546 24.0684 111.198 25.3295 111.198 26.8859C111.198 27.6372 111.278 28.308 111.466 28.9252C111.654 29.5424 111.895 30.079 112.271 30.5352C112.62 30.9913 113.049 31.3402 113.559 31.6085C114.069 31.8768 114.632 32.011 115.303 32.011C116.054 32.011 116.645 31.85 117.155 31.5549C117.664 31.2597 118.067 30.8572 118.416 30.401C118.738 29.918 118.979 29.3814 119.113 28.7642C119.248 28.1202 119.328 27.503 119.328 26.859ZM124.99 14.0059H128.21V17.038H124.99V14.0059ZM124.99 19.5604H128.21V34.1309H124.99V19.5604ZM131.081 14.0059H134.301V34.1309H131.081V14.0059ZM144.122 34.5334C142.968 34.5334 141.922 34.3455 141.009 33.943C140.097 33.5405 139.346 33.0307 138.702 32.3599C138.085 31.689 137.602 30.8572 137.28 29.918C136.958 28.9789 136.77 27.9324 136.77 26.8322C136.77 25.732 136.931 24.7124 137.28 23.7732C137.602 22.834 138.085 22.029 138.702 21.3314C139.319 20.6605 140.097 20.1239 141.009 19.7482C141.922 19.3725 142.968 19.1579 144.122 19.1579C145.276 19.1579 146.322 19.3457 147.235 19.7482C148.147 20.1239 148.898 20.6605 149.542 21.3314C150.16 22.0022 150.643 22.834 150.965 23.7732C151.287 24.7124 151.474 25.732 151.474 26.8322C151.474 27.9592 151.313 28.9789 150.965 29.918C150.616 30.8572 150.16 31.6622 149.542 32.3599C148.925 33.0307 148.147 33.5674 147.235 33.943C146.322 34.3187 145.303 34.5334 144.122 34.5334ZM144.122 31.9842C144.82 31.9842 145.464 31.8232 145.974 31.528C146.51 31.2329 146.913 30.8304 147.262 30.3474C147.61 29.8644 147.852 29.3009 148.013 28.7105C148.174 28.0934 148.254 27.4762 148.254 26.8322C148.254 26.215 148.174 25.5979 148.013 24.9807C147.852 24.3635 147.61 23.8269 147.262 23.3439C146.913 22.8609 146.483 22.4852 145.974 22.19C145.437 21.8949 144.82 21.7339 144.122 21.7339C143.424 21.7339 142.78 21.8949 142.271 22.19C141.734 22.4852 141.331 22.8877 140.983 23.3439C140.634 23.8269 140.392 24.3635 140.231 24.9807C140.07 25.5979 139.99 26.215 139.99 26.8322C139.99 27.4762 140.07 28.0934 140.231 28.7105C140.392 29.3277 140.634 29.8644 140.983 30.3474C141.331 30.8304 141.761 31.2329 142.271 31.528C142.807 31.85 143.424 31.9842 144.122 31.9842ZM152.44 19.5604H154.882V15.1597H158.102V19.5335H161V21.9217H158.102V29.7034C158.102 30.0522 158.129 30.3205 158.156 30.5889C158.183 30.8304 158.263 31.045 158.344 31.206C158.451 31.367 158.612 31.5012 158.8 31.5817C159.015 31.6622 159.283 31.7159 159.659 31.7159C159.873 31.7159 160.115 31.7159 160.329 31.689C160.544 31.6622 160.786 31.6354 161 31.5817V34.0772C160.651 34.1309 160.303 34.1577 159.954 34.1845C159.605 34.2382 159.283 34.2382 158.907 34.2382C158.049 34.2382 157.378 34.1577 156.868 33.9967C156.358 33.8357 155.956 33.5942 155.66 33.299C155.365 32.977 155.177 32.6013 155.07 32.1452C154.963 31.689 154.909 31.1255 154.882 30.5352V21.9485H152.44V19.5067V19.5604Z" fill="#022A1C"/>
<path d="M38.5595 14.007H23.828L19.2932 0L14.7315 14.007L0 13.9802L11.914 22.6473L7.35233 36.6543L19.2663 27.9872L31.1803 36.6543L26.6455 22.6473L38.5595 14.007Z" fill="#00B67A"/>
<path d="M27.665 25.8128L26.6453 22.6465L19.293 27.9863L27.665 25.8128Z" fill="#005128"/>
</svg>
