<svg width="170" height="36" viewBox="0 0 170 36" fill="none" xmlns="http://www.w3.org/2000/svg">
<path d="M21.4179 15.0864H29.6617V16.6211H26.4158V25.2724H24.6366V16.6211H21.4043L21.4179 15.0864ZM29.3086 17.8977H30.8297V19.3238H30.8569C30.9112 19.12 31.0063 18.9299 31.1421 18.7398C31.2779 18.5496 31.4409 18.3731 31.6446 18.2237C31.8347 18.0607 32.052 17.9385 32.2965 17.8434C32.5274 17.7483 32.7718 17.694 33.0163 17.694C33.2064 17.694 33.3423 17.7076 33.4102 17.7076C33.4781 17.7212 33.5596 17.7347 33.6275 17.7347V19.2966C33.5188 19.2694 33.3966 19.2558 33.2743 19.2423C33.1521 19.2287 33.0435 19.2151 32.9212 19.2151C32.6496 19.2151 32.3916 19.2694 32.1471 19.3781C31.9026 19.4867 31.6989 19.6497 31.5088 19.8534C31.3322 20.0707 31.1828 20.3288 31.0742 20.6411C30.9655 20.9535 30.9112 21.3202 30.9112 21.7276V25.2316H29.2814L29.3086 17.8977ZM41.0972 25.2724H39.4946V24.2402H39.4674C39.2637 24.6205 38.9649 24.9057 38.5711 25.1366C38.1772 25.3674 37.7698 25.4761 37.3623 25.4761C36.398 25.4761 35.6918 25.2452 35.2572 24.7563C34.8226 24.2809 34.6053 23.5475 34.6053 22.5833V17.8977H36.2351V22.4203C36.2351 23.0722 36.3573 23.534 36.6153 23.792C36.8598 24.0636 37.2129 24.1994 37.6611 24.1994C38.0006 24.1994 38.2858 24.1451 38.5167 24.0365C38.7476 23.9278 38.9377 23.792 39.0736 23.6154C39.223 23.4389 39.318 23.2216 39.3859 22.9771C39.4538 22.7327 39.481 22.461 39.481 22.1758V17.8977H41.1108V25.2724H41.0972ZM43.8678 22.9092C43.9221 23.3846 44.0986 23.7105 44.411 23.9142C44.7234 24.1044 45.1037 24.1994 45.5383 24.1994C45.6877 24.1994 45.8642 24.1859 46.0543 24.1587C46.2445 24.1315 46.4346 24.0908 46.5976 24.0229C46.7742 23.955 46.91 23.8599 47.0186 23.7241C47.1273 23.5883 47.1816 23.4253 47.168 23.2216C47.1544 23.0179 47.0865 22.8413 46.9371 22.7055C46.7877 22.5697 46.6112 22.4746 46.3939 22.3795C46.1766 22.2981 45.9185 22.2302 45.6333 22.1758C45.3481 22.1215 45.0629 22.0536 44.7641 21.9857C44.4653 21.9178 44.1665 21.8363 43.8813 21.7412C43.5961 21.6462 43.3517 21.5239 43.1208 21.3474C42.9035 21.1844 42.7133 20.9807 42.5911 20.7226C42.4553 20.4646 42.3874 20.1658 42.3874 19.7855C42.3874 19.3781 42.4825 19.0521 42.6862 18.7805C42.8763 18.5089 43.1344 18.2916 43.4332 18.1286C43.7319 17.9656 44.0715 17.8434 44.4382 17.7755C44.8049 17.7076 45.158 17.6804 45.4839 17.6804C45.8642 17.6804 46.2309 17.7212 46.5704 17.8027C46.91 17.8841 47.2359 18.0064 47.5075 18.1965C47.7928 18.3731 48.0236 18.6175 48.2002 18.9027C48.3903 19.1879 48.499 19.5411 48.5533 19.9485H46.8556C46.7742 19.5546 46.5976 19.2966 46.326 19.1608C46.0408 19.025 45.7284 18.9571 45.3617 18.9571C45.253 18.9571 45.1037 18.9706 44.9543 18.9842C44.7913 19.0114 44.6555 19.0385 44.5061 19.0929C44.3703 19.1472 44.248 19.2287 44.153 19.3238C44.0579 19.4188 44.0036 19.5546 44.0036 19.7176C44.0036 19.9213 44.0715 20.0707 44.2073 20.193C44.3431 20.3152 44.5197 20.4103 44.7505 20.5053C44.9678 20.5868 45.2259 20.6547 45.5111 20.709C45.7963 20.7634 46.0951 20.8313 46.3939 20.8992C46.6927 20.9671 46.9779 21.0486 47.2631 21.1436C47.5483 21.2387 47.8063 21.361 48.0236 21.5375C48.2409 21.7005 48.4311 21.9042 48.5669 22.1487C48.7027 22.3931 48.7706 22.7055 48.7706 23.0586C48.7706 23.4932 48.6755 23.8599 48.4718 24.1723C48.2681 24.4711 48.0101 24.7291 47.6977 24.9192C47.3853 25.1094 47.0186 25.2452 46.6383 25.3403C46.2445 25.4218 45.8642 25.4761 45.4839 25.4761C45.0222 25.4761 44.5876 25.4218 44.1937 25.3131C43.7999 25.2045 43.4467 25.0415 43.1615 24.8378C42.8763 24.6205 42.6454 24.3624 42.4825 24.0365C42.3195 23.7241 42.2244 23.3438 42.2108 22.8956H43.8542V22.9092H43.8678ZM49.2324 17.8977H50.4683V15.6704H52.098V17.8841H53.5648V19.0929H52.098V23.0314C52.098 23.208 52.1116 23.3438 52.1252 23.4796C52.1388 23.6019 52.1795 23.7105 52.2203 23.792C52.2746 23.8735 52.3561 23.9414 52.4511 23.9821C52.5598 24.0229 52.6956 24.05 52.8857 24.05C52.9944 24.05 53.1166 24.05 53.2253 24.0365C53.3339 24.0229 53.4562 24.0093 53.5648 23.9821V25.2452C53.3882 25.2724 53.2117 25.2859 53.0351 25.2995C52.8586 25.3267 52.6956 25.3267 52.5055 25.3267C52.0709 25.3267 51.7313 25.2859 51.4733 25.2045C51.2152 25.123 51.0115 25.0007 50.8621 24.8513C50.7127 24.6884 50.6177 24.4982 50.5633 24.2673C50.509 24.0365 50.4818 23.7513 50.4683 23.4525V19.1065H49.2324V17.8706V17.8977ZM54.7056 17.8977H56.2403V18.9027H56.2675C56.4984 18.4681 56.8107 18.1693 57.2182 17.9792C57.6256 17.7891 58.0602 17.694 58.5491 17.694C59.1331 17.694 59.6356 17.7891 60.0702 18.0064C60.5048 18.2101 60.858 18.4817 61.1432 18.8484C61.4284 19.2015 61.6457 19.6225 61.7815 20.0979C61.9173 20.5732 61.9988 21.0893 61.9988 21.619C61.9988 22.1215 61.9309 22.5968 61.8087 23.0586C61.6728 23.5204 61.4827 23.9414 61.2247 24.2945C60.9666 24.6476 60.6407 24.9328 60.2332 25.1501C59.8258 25.3674 59.364 25.4761 58.8208 25.4761C58.5899 25.4761 58.3454 25.4489 58.1145 25.4082C57.8837 25.3674 57.6528 25.2995 57.4355 25.2045C57.2182 25.1094 57.0145 24.9872 56.8379 24.8378C56.6478 24.6884 56.4984 24.5118 56.3761 24.3217H56.349V28.0022H54.7192V17.8977H54.7056ZM60.3962 21.5918C60.3962 21.2659 60.3555 20.9399 60.2604 20.6276C60.1789 20.3152 60.0431 20.0436 59.8665 19.7991C59.69 19.5546 59.4727 19.3645 59.2282 19.2151C58.9702 19.0657 58.6714 18.9978 58.3454 18.9978C57.6664 18.9978 57.1503 19.2287 56.7972 19.704C56.4576 20.1794 56.2811 20.8177 56.2811 21.6054C56.2811 21.9857 56.3218 22.3252 56.4169 22.6376C56.5119 22.95 56.6342 23.2216 56.8243 23.4525C57.0009 23.6833 57.2182 23.8599 57.4762 23.9957C57.7343 24.1315 58.0195 24.1994 58.359 24.1994C58.7393 24.1994 59.0381 24.118 59.2961 23.9686C59.5542 23.8192 59.7579 23.6154 59.9344 23.3846C60.0974 23.1401 60.2196 22.8685 60.2875 22.5561C60.3554 22.2302 60.3962 21.9178 60.3962 21.5918ZM63.2618 15.0864H64.8916V16.6211H63.2618V15.0864ZM63.2618 17.8977H64.8916V25.2724H63.2618V17.8977ZM66.3448 15.0864H67.9746V25.2724H66.3448V15.0864ZM72.9453 25.4761C72.3613 25.4761 71.8316 25.381 71.3699 25.1773C70.9081 24.9736 70.5278 24.7155 70.2019 24.376C69.8895 24.0365 69.6451 23.6154 69.4821 23.1401C69.3191 22.6648 69.224 22.1351 69.224 21.5782C69.224 21.0214 69.3055 20.5053 69.4821 20.03C69.6451 19.5546 69.8895 19.1472 70.2019 18.7941C70.5143 18.4546 70.9081 18.1829 71.3699 17.9928C71.8316 17.8027 72.3613 17.694 72.9453 17.694C73.5293 17.694 74.059 17.7891 74.5207 17.9928C74.9825 18.1829 75.3628 18.4546 75.6887 18.7941C76.0011 19.1336 76.2456 19.5546 76.4085 20.03C76.5715 20.5053 76.6666 21.0214 76.6666 21.5782C76.6666 22.1487 76.5851 22.6648 76.4085 23.1401C76.232 23.6154 76.0011 24.0229 75.6887 24.376C75.3764 24.7155 74.9825 24.9872 74.5207 25.1773C74.059 25.3674 73.5429 25.4761 72.9453 25.4761ZM72.9453 24.1859C73.2984 24.1859 73.6244 24.1044 73.8824 23.955C74.154 23.8056 74.3578 23.6019 74.5343 23.3574C74.7109 23.1129 74.8331 22.8277 74.9146 22.5289C74.9961 22.2166 75.0368 21.9042 75.0368 21.5782C75.0368 21.2659 74.9961 20.9535 74.9146 20.6411C74.8331 20.3288 74.7109 20.0571 74.5343 19.8127C74.3578 19.5682 74.1405 19.3781 73.8824 19.2287C73.6108 19.0793 73.2984 18.9978 72.9453 18.9978C72.5922 18.9978 72.2662 19.0793 72.0082 19.2287C71.7366 19.3781 71.5329 19.5818 71.3563 19.8127C71.1797 20.0571 71.0575 20.3288 70.976 20.6411C70.8945 20.9535 70.8538 21.2659 70.8538 21.5782C70.8538 21.9042 70.8945 22.2166 70.976 22.5289C71.0575 22.8413 71.1797 23.1129 71.3563 23.3574C71.5329 23.6019 71.7502 23.8056 72.0082 23.955C72.2798 24.118 72.5922 24.1859 72.9453 24.1859ZM77.1555 17.8977H78.3914V15.6704H80.0212V17.8841H81.4879V19.0929H80.0212V23.0314C80.0212 23.208 80.0348 23.3438 80.0483 23.4796C80.0619 23.6019 80.1026 23.7105 80.1434 23.792C80.1977 23.8735 80.2792 23.9414 80.3743 23.9821C80.4829 24.0229 80.6187 24.05 80.8089 24.05C80.9175 24.05 81.0398 24.05 81.1484 24.0365C81.2571 24.0229 81.3793 24.0093 81.4879 23.9821V25.2452C81.3114 25.2724 81.1348 25.2859 80.9583 25.2995C80.7817 25.3267 80.6187 25.3267 80.4286 25.3267C79.994 25.3267 79.6545 25.2859 79.3964 25.2045C79.1384 25.123 78.9347 25.0007 78.7853 24.8513C78.6359 24.6884 78.5408 24.4982 78.4865 24.2673C78.4322 24.0365 78.405 23.7513 78.3914 23.4525V19.1065H77.1555V17.8706V17.8977Z" fill="#022A1C"/>
<path d="M19.5163 15.0871H12.0602L9.76495 7.99767L7.45613 15.0871L0 15.0735L6.03009 19.4603L3.72127 26.5497L9.75137 22.163L15.7815 26.5497L13.4862 19.4603L19.5163 15.0871Z" fill="#00B67A"/>
<path d="M14.003 21.0626L13.4869 19.46L9.76562 22.1627L14.003 21.0626Z" fill="#005128"/>
<line x1="98.3284" y1="4.96194" x2="98.3284" y2="31.0381" stroke="#E8EBED" stroke-width="1.08651"/>
<path fill-rule="evenodd" clip-rule="evenodd" d="M121.308 19.4534C119.895 19.4501 118.698 18.5045 118.127 17.9595C118.703 17.4501 119.899 16.5843 121.308 16.581C122.336 16.581 123.328 17.0438 124.262 17.9584C123.325 18.9507 122.334 19.4534 121.308 19.4534ZM115.397 12.8973C116.107 12.6154 117.511 12.2069 118.844 12.6864C119.816 13.0349 120.595 13.8118 121.162 14.9961C119.94 15.6099 118.834 15.742 117.869 15.3879C116.542 14.9018 115.745 13.6032 115.397 12.8973ZM116.127 6.21668C116.855 6.46197 118.2 7.05687 118.907 8.27667C119.425 9.16792 119.52 10.2601 119.195 11.5286C117.864 11.2134 116.932 10.6041 116.42 9.7128C115.716 8.48747 115.94 6.9826 116.127 6.21668ZM120.191 1.49929C120.699 2.07532 121.566 3.26292 121.569 4.67252C121.571 5.70362 121.108 6.69699 120.192 7.63265C119.197 6.69477 118.694 5.7014 118.697 4.67252C118.7 3.2607 119.646 2.06867 120.191 1.49929ZM122.357 15.5663C122.463 15.4142 122.491 15.2156 122.418 15.0346C121.888 13.7061 121.145 12.726 120.207 12.1066C120.549 10.9501 120.606 9.89124 120.377 8.94334C120.452 8.92003 120.524 8.88229 120.585 8.8268C121.999 7.56373 122.712 6.16191 122.706 4.66023C122.694 2.1596 120.668 0.349317 120.581 0.272884C120.373 0.0897502 120.062 0.084201 119.846 0.259565C119.753 0.336149 117.57 2.14861 117.56 4.6614C117.559 4.99549 117.598 5.32511 117.672 5.64923C116.735 5.14534 115.914 4.97219 115.852 4.95997C115.581 4.90558 115.308 5.05653 115.209 5.31625C115.167 5.42835 114.183 8.08879 115.43 10.271C115.684 10.715 116.014 11.099 116.409 11.4331C115.266 11.6373 114.438 12.0801 114.379 12.1123C114.136 12.2455 114.024 12.5352 114.116 12.7983C114.155 12.9115 115.112 15.5819 117.47 16.452C117.645 16.5163 117.823 16.5652 118.003 16.6062C117.339 17.0802 116.936 17.5286 116.902 17.5685C116.718 17.7772 116.713 18.0879 116.889 18.3033C116.964 18.3965 118.777 20.5786 121.291 20.5897C122.793 20.5897 124.211 19.8216 125.469 18.3066C125.649 18.0902 125.644 17.7749 125.456 17.5652C124.497 16.4919 123.458 15.8238 122.357 15.5663Z" fill="#B9B9B9"/>
<path d="M128.714 13.6002V12.0467L134.526 3.43513H136.923V11.759H138.592V13.6002H136.923V16.8607H134.833V13.6002H128.714ZM130.958 11.759H134.833V5.94763L130.958 11.759ZM139.996 15.7675C139.996 15.0195 140.61 14.4057 141.358 14.4057C142.106 14.4057 142.72 15.0195 142.72 15.7675C142.72 16.4963 142.106 17.11 141.358 17.11C140.61 17.11 139.996 16.4963 139.996 15.7675ZM149.174 15.1154C150.535 15.1154 151.398 14.1756 151.398 12.4878C151.398 11.0493 150.631 9.95612 149.135 9.95612C148.1 9.95612 147.275 10.5507 146.757 11.4137C146.757 13.3509 147.026 15.1154 149.174 15.1154ZM149.826 3.1858C151.303 3.1858 152.338 3.72282 152.914 4.10641L152.031 5.7942C151.609 5.50651 150.957 5.18046 149.941 5.18046C147.448 5.18046 146.853 7.50116 146.853 9.2273C147.294 8.6711 148.138 8.03818 149.538 8.03818C151.974 8.03818 153.508 9.76432 153.508 12.4303C153.508 15.2688 151.801 17.11 149.135 17.11C145.587 17.11 144.609 14.4633 144.609 11.1069C144.609 6.61891 145.894 3.1858 149.826 3.1858Z" fill="#022A1C"/>
<path fill-rule="evenodd" clip-rule="evenodd" d="M162.008 19.4534C163.421 19.4501 164.619 18.5045 165.189 17.9595C164.613 17.4501 163.426 16.5843 162.016 16.581C160.988 16.581 159.988 17.0438 159.055 17.9584C159.991 18.9507 160.982 19.4534 162.008 19.4534ZM167.92 12.8973C167.209 12.6154 165.805 12.2069 164.472 12.6864C163.5 13.0349 162.722 13.8118 162.155 14.9961C163.377 15.6099 164.482 15.742 165.448 15.3879C166.774 14.9018 167.571 13.6032 167.92 12.8973ZM167.189 6.21668C166.461 6.46197 165.116 7.05687 164.409 8.27667C163.892 9.16792 163.796 10.2601 164.122 11.5286C165.452 11.2134 166.385 10.6041 166.896 9.7128C167.6 8.48747 167.377 6.9826 167.189 6.21668ZM163.126 1.49929C162.618 2.07532 161.751 3.26292 161.747 4.67252C161.745 5.70362 162.208 6.69699 163.125 7.63265C164.119 6.69477 164.622 5.7014 164.62 4.67252C164.616 3.2607 163.671 2.06867 163.126 1.49929ZM160.959 15.5663C160.854 15.4142 160.825 15.2156 160.898 15.0346C161.429 13.7061 162.171 12.726 163.109 12.1066C162.767 10.9501 162.711 9.89124 162.939 8.94334C162.864 8.92003 162.793 8.88229 162.732 8.8268C161.318 7.56373 160.604 6.16191 160.611 4.66023C160.622 2.1596 162.649 0.349317 162.735 0.272884C162.944 0.0897502 163.255 0.084201 163.47 0.259565C163.563 0.336149 165.746 2.14861 165.756 4.6614C165.757 4.99549 165.719 5.32511 165.644 5.64923C166.581 5.14534 167.402 4.97219 167.464 4.95997C167.735 4.90558 168.008 5.05653 168.107 5.31625C168.149 5.42835 169.134 8.08879 167.886 10.271C167.632 10.715 167.302 11.099 166.907 11.4331C168.05 11.6373 168.878 12.0801 168.937 12.1123C169.18 12.2455 169.292 12.5352 169.2 12.7983C169.162 12.9115 168.205 15.5819 165.846 16.452C165.672 16.5163 165.493 16.5652 165.313 16.6062C165.977 17.0802 166.38 17.5286 166.414 17.5685C166.599 17.7772 166.603 18.0879 166.428 18.3033C166.352 18.3965 164.54 20.5786 162.026 20.5897C160.523 20.5897 159.106 19.8216 157.847 18.3066C157.667 18.0902 157.673 17.7749 157.86 17.5652C158.819 16.4919 159.858 15.8238 160.959 15.5663Z" fill="#B9B9B9"/>
<path d="M124.237 30.8683V24.603H127.334V25.4981H125.231V27.2434H127.057V28.1295H125.231V29.9733H127.424V30.8683H124.237ZM131.349 30.8683L130.176 29.1946L129.004 30.8683H127.93L129.621 28.4696L128.028 26.1962H129.138L130.176 27.7804L131.215 26.1962H132.324L130.731 28.4696L132.423 30.8683H131.349ZM136.742 26.6527L136.447 27.4761C136.232 27.2703 135.802 26.9659 135.212 26.9659C134.325 26.9659 133.735 27.6462 133.735 28.5323C133.735 29.4273 134.379 30.1165 135.247 30.1165C135.847 30.1165 136.268 29.7764 136.465 29.5974L136.742 30.4029C136.509 30.6087 135.972 30.9847 135.194 30.9847C133.771 30.9847 132.75 29.9375 132.75 28.5323C132.75 27.136 133.797 26.0799 135.185 26.0799C135.954 26.0799 136.474 26.42 136.742 26.6527ZM137.243 28.5502C137.243 27.1002 138.237 26.0799 139.516 26.0799C140.931 26.0799 141.763 27.0554 141.763 28.5233C141.763 28.6039 141.763 28.6844 141.754 28.765H138.237C138.254 29.5974 138.854 30.1344 139.687 30.1344C140.394 30.1344 140.796 29.7406 140.975 29.481L141.62 29.9643C141.396 30.3492 140.778 30.9847 139.669 30.9847C138.21 30.9847 137.243 29.9643 137.243 28.5502ZM138.272 28.0937H140.77C140.734 27.324 140.197 26.8943 139.525 26.8943C138.854 26.8943 138.335 27.3598 138.272 28.0937ZM142.546 30.8683V24.3972H143.522V30.8683H142.546ZM144.618 30.8683V24.3972H145.594V30.8683H144.618ZM146.412 28.5502C146.412 27.1002 147.405 26.0799 148.685 26.0799C150.1 26.0799 150.932 27.0554 150.932 28.5233C150.932 28.6039 150.932 28.6844 150.923 28.765H147.405C147.423 29.5974 148.023 30.1344 148.855 30.1344C149.563 30.1344 149.965 29.7406 150.144 29.481L150.789 29.9643C150.565 30.3492 149.947 30.9847 148.838 30.9847C147.379 30.9847 146.412 29.9643 146.412 28.5502ZM147.441 28.0937H149.938C149.903 27.324 149.366 26.8943 148.694 26.8943C148.023 26.8943 147.504 27.3598 147.441 28.0937ZM153.989 26.0799C155.197 26.0799 155.618 27.0375 155.618 28.0579V30.8683H154.651V27.9773C154.651 27.3329 154.248 26.957 153.711 26.957C153.094 26.957 152.691 27.4135 152.691 28.0489V30.8683H151.715V26.1962H152.673V26.8048C152.879 26.4379 153.362 26.0799 153.989 26.0799ZM156.752 26.1962V25.2206H157.718V26.1962H158.667V27.0017H157.718V29.1767C157.718 29.9017 157.996 30.0628 158.515 30.0628C158.596 30.0628 158.703 30.0538 158.703 30.0538V30.8952C158.703 30.8952 158.533 30.931 158.229 30.931C157.092 30.931 156.752 30.1702 156.752 29.0245V27.0017H156.233V26.1962H156.752Z" fill="#B9B9B9"/>
</svg>
