<svg width="325" height="287" viewBox="0 0 325 287" fill="none" xmlns="http://www.w3.org/2000/svg">
<path d="M33.2275 21.6426C34.4691 20.6314 36.2616 20.6637 37.4648 21.7197C37.9686 22.1645 49.6497 32.6015 49.7139 47.0176C49.7524 55.6765 45.6377 63.7599 37.4844 71.043C37.1324 71.363 36.7223 71.5804 36.2871 71.7148C37.6054 77.1806 37.2787 83.2864 35.3076 89.9551C40.7154 93.5267 44.9974 99.1782 48.0566 106.839C48.479 107.882 48.3121 109.028 47.7041 109.904C54.0525 111.389 60.0447 115.242 65.5742 121.431C66.6558 122.64 66.6881 124.458 65.6514 125.706C58.3934 134.442 50.3227 138.871 41.6572 138.871H41.5547C27.0591 138.807 16.6082 126.224 16.1729 125.687C15.1617 124.445 15.1868 122.653 16.249 121.45C16.4474 121.22 18.7707 118.634 22.5977 115.901C21.5611 115.665 20.531 115.383 19.5264 115.012C5.9259 109.995 0.408571 94.5962 0.18457 93.9434C-0.34643 92.4266 0.300649 90.7562 1.70215 89.9883C2.04461 89.8009 6.81788 87.2484 13.4072 86.0713C11.129 84.1451 9.22824 81.9309 7.7627 79.3711C0.569147 66.788 6.24598 51.4474 6.48926 50.8008C7.05875 49.3032 8.63277 48.4325 10.1943 48.7461C10.5527 48.8165 15.2888 49.8152 20.6904 52.7207C20.2616 50.8518 20.0375 48.9508 20.0439 47.0244C20.1017 32.5368 32.6874 22.0863 33.2275 21.6426ZM41.6123 115.756C33.4845 115.775 26.6361 120.766 23.3145 123.704C26.6042 126.847 33.471 132.3 41.6182 132.319H41.6572C47.5713 132.319 53.2861 129.42 58.6875 123.698C53.3044 118.425 47.5826 115.756 41.6562 115.756H41.6123ZM27.4482 93.2988C19.7618 90.5342 11.6664 92.8891 7.57031 94.5146C9.57983 98.5851 14.1746 106.073 21.8223 108.876C27.3905 110.918 33.7652 110.156 40.8115 106.617C37.5413 99.7884 33.0547 95.3085 27.4482 93.2988ZM11.7812 55.9932C10.6996 60.4097 9.41317 69.087 13.4707 76.1523C16.4211 81.2914 21.7972 84.8045 29.4707 86.6221C31.3457 79.3077 30.7957 73.0101 27.8135 67.8711C23.7368 60.8377 15.9797 57.4076 11.7812 55.9932ZM35.2119 28.791C32.0695 32.0742 26.6169 38.948 26.5977 47.0889C26.5849 53.0215 29.4837 58.7494 35.2178 64.1572C40.5042 58.762 43.1739 53.0344 43.1611 47.0889C43.1418 38.9608 38.1432 32.1125 35.2119 28.791Z" fill="#B9B9B9"/>
<path d="M33.2275 21.6426C34.4691 20.6314 36.2616 20.6637 37.4648 21.7197C37.9686 22.1645 49.6497 32.6015 49.7139 47.0176C49.7524 55.6765 45.6377 63.7599 37.4844 71.043C37.1324 71.363 36.7223 71.5804 36.2871 71.7148C37.6054 77.1806 37.2787 83.2864 35.3076 89.9551C40.7154 93.5267 44.9974 99.1782 48.0566 106.839C48.479 107.882 48.3121 109.028 47.7041 109.904C54.0525 111.389 60.0447 115.242 65.5742 121.431C66.6558 122.64 66.6881 124.458 65.6514 125.706C58.3934 134.442 50.3227 138.871 41.6572 138.871H41.5547C27.0591 138.807 16.6082 126.224 16.1729 125.687C15.1617 124.445 15.1868 122.653 16.249 121.45C16.4474 121.22 18.7707 118.634 22.5977 115.901C21.5611 115.665 20.531 115.383 19.5264 115.012C5.9259 109.995 0.408571 94.5962 0.18457 93.9434C-0.34643 92.4266 0.300649 90.7562 1.70215 89.9883C2.04461 89.8009 6.81788 87.2484 13.4072 86.0713C11.129 84.1451 9.22824 81.9309 7.7627 79.3711C0.569147 66.788 6.24598 51.4474 6.48926 50.8008C7.05875 49.3032 8.63277 48.4325 10.1943 48.7461C10.5527 48.8165 15.2888 49.8152 20.6904 52.7207C20.2616 50.8518 20.0375 48.9508 20.0439 47.0244C20.1017 32.5368 32.6874 22.0863 33.2275 21.6426ZM41.6123 115.756C33.4845 115.775 26.6361 120.766 23.3145 123.704C26.6042 126.847 33.471 132.3 41.6182 132.319H41.6572C47.5713 132.319 53.2861 129.42 58.6875 123.698C53.3044 118.425 47.5826 115.756 41.6562 115.756H41.6123ZM27.4482 93.2988C19.7618 90.5342 11.6664 92.8891 7.57031 94.5146C9.57983 98.5851 14.1746 106.073 21.8223 108.876C27.3905 110.918 33.7652 110.156 40.8115 106.617C37.5413 99.7884 33.0547 95.3085 27.4482 93.2988ZM11.7812 55.9932C10.6996 60.4097 9.41317 69.087 13.4707 76.1523C16.4211 81.2914 21.7972 84.8045 29.4707 86.6221C31.3457 79.3077 30.7957 73.0101 27.8135 67.8711C23.7368 60.8377 15.9797 57.4076 11.7812 55.9932ZM35.2119 28.791C32.0695 32.0742 26.6169 38.948 26.5977 47.0889C26.5849 53.0215 29.4837 58.7494 35.2178 64.1572C40.5042 58.762 43.1739 53.0344 43.1611 47.0889C43.1418 38.9608 38.1432 32.1125 35.2119 28.791Z" stroke="white"/>
<path d="M291.23 21.6426C289.988 20.6314 288.196 20.6637 286.992 21.7197C286.489 22.1645 274.808 32.6015 274.743 47.0176C274.705 55.6765 278.82 63.7599 286.973 71.043C287.325 71.363 287.735 71.5804 288.17 71.7148C286.852 77.1806 287.179 83.2864 289.15 89.9551C283.742 93.5267 279.46 99.1782 276.401 106.839C275.978 107.882 276.145 109.028 276.753 109.904C270.405 111.389 264.413 115.242 258.883 121.431C257.801 122.64 257.769 124.458 258.806 125.706C266.064 134.442 274.135 138.871 282.8 138.871H282.903C297.398 138.807 307.849 126.224 308.284 125.687C309.296 124.445 309.27 122.653 308.208 121.45C308.01 121.22 305.687 118.634 301.86 115.901C302.896 115.665 303.926 115.383 304.931 115.012C318.531 109.995 324.049 94.5962 324.273 93.9434C324.804 92.4266 324.157 90.7562 322.755 89.9883C322.413 89.8009 317.639 87.2484 311.05 86.0713C313.328 84.1451 315.229 81.9309 316.695 79.3711C323.888 66.788 318.211 51.4474 317.968 50.8008C317.399 49.3032 315.825 48.4325 314.263 48.7461C313.905 48.8165 309.168 49.8152 303.767 52.7207C304.196 50.8518 304.42 48.9508 304.413 47.0244C304.356 32.5368 291.77 22.0863 291.23 21.6426ZM282.845 115.756C290.973 115.775 297.821 120.766 301.143 123.704C297.853 126.847 290.986 132.3 282.839 132.319H282.8C276.886 132.319 271.171 129.42 265.77 123.698C271.153 118.425 276.875 115.756 282.801 115.756H282.845ZM297.009 93.2988C304.695 90.5342 312.791 92.8891 316.887 94.5146C314.877 98.5851 310.283 106.073 302.635 108.876C297.067 110.918 290.692 110.156 283.646 106.617C286.916 99.7884 291.403 95.3085 297.009 93.2988ZM312.676 55.9932C313.758 60.4097 315.044 69.087 310.987 76.1523C308.036 81.2914 302.66 84.8045 294.987 86.6221C293.112 79.3077 293.662 73.0101 296.644 67.8711C300.72 60.8377 308.478 57.4076 312.676 55.9932ZM289.245 28.791C292.388 32.0742 297.84 38.948 297.86 47.0889C297.872 53.0215 294.974 58.7494 289.24 64.1572C283.953 58.762 281.283 53.0344 281.296 47.0889C281.315 38.9608 286.314 32.1125 289.245 28.791Z" fill="#B9B9B9"/>
<path d="M291.23 21.6426C289.988 20.6314 288.196 20.6637 286.992 21.7197C286.489 22.1645 274.808 32.6015 274.743 47.0176C274.705 55.6765 278.82 63.7599 286.973 71.043C287.325 71.363 287.735 71.5804 288.17 71.7148C286.852 77.1806 287.179 83.2864 289.15 89.9551C283.742 93.5267 279.46 99.1782 276.401 106.839C275.978 107.882 276.145 109.028 276.753 109.904C270.405 111.389 264.413 115.242 258.883 121.431C257.801 122.64 257.769 124.458 258.806 125.706C266.064 134.442 274.135 138.871 282.8 138.871H282.903C297.398 138.807 307.849 126.224 308.284 125.687C309.296 124.445 309.27 122.653 308.208 121.45C308.01 121.22 305.687 118.634 301.86 115.901C302.896 115.665 303.926 115.383 304.931 115.012C318.531 109.995 324.049 94.5962 324.273 93.9434C324.804 92.4266 324.157 90.7562 322.755 89.9883C322.413 89.8009 317.639 87.2484 311.05 86.0713C313.328 84.1451 315.229 81.9309 316.695 79.3711C323.888 66.788 318.211 51.4474 317.968 50.8008C317.399 49.3032 315.825 48.4325 314.263 48.7461C313.905 48.8165 309.168 49.8152 303.767 52.7207C304.196 50.8518 304.42 48.9508 304.413 47.0244C304.356 32.5368 291.77 22.0863 291.23 21.6426ZM282.845 115.756C290.973 115.775 297.821 120.766 301.143 123.704C297.853 126.847 290.986 132.3 282.839 132.319H282.8C276.886 132.319 271.171 129.42 265.77 123.698C271.153 118.425 276.875 115.756 282.801 115.756H282.845ZM297.009 93.2988C304.695 90.5342 312.791 92.8891 316.887 94.5146C314.877 98.5851 310.283 106.073 302.635 108.876C297.067 110.918 290.692 110.156 283.646 106.617C286.916 99.7884 291.403 95.3085 297.009 93.2988ZM312.676 55.9932C313.758 60.4097 315.044 69.087 310.987 76.1523C308.036 81.2914 302.66 84.8045 294.987 86.6221C293.112 79.3077 293.662 73.0101 296.644 67.8711C300.72 60.8377 308.478 57.4076 312.676 55.9932ZM289.245 28.791C292.388 32.0742 297.84 38.948 297.86 47.0889C297.872 53.0215 294.974 58.7494 289.24 64.1572C283.953 58.762 281.283 53.0344 281.296 47.0889C281.315 38.9608 286.314 32.1125 289.245 28.791Z" stroke="white"/>
<path d="M89.3029 96.7963V87.6462L123.531 36.9258H137.651V85.9518H147.479V96.7963H137.651V116H125.338V96.7963H89.3029ZM102.52 85.9518H125.338V51.7239L102.52 85.9518ZM155.75 109.561C155.75 105.156 159.365 101.541 163.77 101.541C168.176 101.541 171.791 105.156 171.791 109.561C171.791 113.854 168.176 117.469 163.77 117.469C159.365 117.469 155.75 113.854 155.75 109.561ZM209.805 105.72C217.825 105.72 222.908 100.185 222.908 90.2444C222.908 81.7722 218.39 75.3333 209.579 75.3333C203.479 75.3333 198.621 78.8351 195.571 83.9185C195.571 95.3277 197.153 105.72 209.805 105.72ZM213.645 35.4572C222.344 35.4572 228.444 38.6202 231.832 40.8795L226.636 50.8202C224.151 49.1258 220.31 47.2054 214.323 47.2054C199.638 47.2054 196.136 60.874 196.136 71.0406C198.734 67.7647 203.705 64.0369 211.951 64.0369C226.297 64.0369 235.334 74.2036 235.334 89.9055C235.334 106.624 225.281 117.469 209.579 117.469C188.681 117.469 182.919 101.88 182.919 82.111C182.919 55.6777 190.488 35.4572 213.645 35.4572Z" fill="#022A1C"/>
<path d="M62.7503 194.841V158.714H80.6073V163.875H68.479V173.939H79.0074V179.048H68.479V189.68H81.1234V194.841H62.7503ZM103.756 194.841L96.9955 185.19L90.2346 194.841H84.0414L93.7957 181.009L84.6091 167.9H91.0088L96.9955 177.035L102.982 167.9H109.382L100.195 181.009L109.95 194.841H103.756ZM134.855 170.533L133.152 175.281C131.914 174.094 129.436 172.339 126.03 172.339C120.921 172.339 117.514 176.261 117.514 181.371C117.514 186.532 121.23 190.506 126.237 190.506C129.694 190.506 132.12 188.544 133.255 187.512L134.855 192.157C133.514 193.344 130.417 195.512 125.927 195.512C117.721 195.512 111.837 189.473 111.837 181.371C111.837 173.319 117.876 167.23 125.875 167.23C130.314 167.23 133.307 169.191 134.855 170.533ZM137.744 181.474C137.744 173.113 143.473 167.23 150.853 167.23C159.008 167.23 163.807 172.855 163.807 181.319C163.807 181.784 163.807 182.248 163.756 182.712H143.473C143.576 187.512 147.034 190.609 151.834 190.609C155.911 190.609 158.233 188.338 159.266 186.841L162.982 189.628C161.691 191.847 158.13 195.512 151.731 195.512C143.318 195.512 137.744 189.628 137.744 181.474ZM143.679 178.842H158.079C157.872 174.403 154.776 171.926 150.905 171.926C147.034 171.926 144.041 174.61 143.679 178.842ZM168.324 194.841V157.527H173.95V194.841H168.324ZM180.269 194.841V157.527H185.895V194.841H180.269ZM190.614 181.474C190.614 173.113 196.343 167.23 203.723 167.23C211.878 167.23 216.677 172.855 216.677 181.319C216.677 181.784 216.677 182.248 216.626 182.712H196.343C196.446 187.512 199.904 190.609 204.704 190.609C208.781 190.609 211.103 188.338 212.136 186.841L215.852 189.628C214.561 191.847 211 195.512 204.601 195.512C196.188 195.512 190.614 189.628 190.614 181.474ZM196.549 178.842H210.949C210.742 174.403 207.646 171.926 203.775 171.926C199.904 171.926 196.911 174.61 196.549 178.842ZM234.303 167.23C241.271 167.23 243.696 172.752 243.696 178.635V194.841H238.122V178.171C238.122 174.455 235.8 172.287 232.703 172.287C229.142 172.287 226.82 174.919 226.82 178.584V194.841H221.194V167.9H226.717V171.41C227.904 169.294 230.691 167.23 234.303 167.23ZM250.236 167.9V162.275H255.81V167.9H261.28V172.545H255.81V185.087C255.81 189.267 257.41 190.196 260.403 190.196C260.867 190.196 261.487 190.144 261.487 190.144V194.996C261.487 194.996 260.506 195.202 258.751 195.202C252.197 195.202 250.236 190.815 250.236 184.209V172.545H247.242V167.9H250.236Z" fill="#B9B9B9"/>
<rect width="49.3122" height="49.3122" transform="translate(25.8049 237.688)" fill="#00B67A"/>
<path d="M67.7234 257.622H54.5357L50.4761 245.083L46.3925 257.622L33.2048 257.598L43.8703 265.357L39.7867 277.896L50.4521 270.137L61.1175 277.896L57.0579 265.357L67.7234 257.622Z" fill="white"/>
<path d="M57.9719 268.203L57.0591 265.368L50.4773 270.149L57.9719 268.203Z" fill="#00B67A"/>
<rect width="49.3122" height="49.3122" transform="translate(82.49 237.688)" fill="#00B67A"/>
<path d="M124.409 257.622H111.222L107.162 245.083L103.078 257.622L89.8907 257.598L100.556 265.357L96.4726 277.896L107.138 270.137L117.803 277.896L113.744 265.357L124.409 257.622Z" fill="white"/>
<path d="M114.658 268.203L113.745 265.368L107.164 270.149L114.658 268.203Z" fill="#00B67A"/>
<rect width="49.3122" height="49.3122" transform="translate(139.175 237.688)" fill="#00B67A"/>
<path d="M181.093 257.622H167.905L163.846 245.083L159.762 257.622L146.574 257.598L157.24 265.357L153.156 277.896L163.822 270.137L174.487 277.896L170.428 265.357L181.093 257.622Z" fill="white"/>
<path d="M171.341 268.203L170.428 265.368L163.846 270.149L171.341 268.203Z" fill="#00B67A"/>
<rect width="49.3122" height="49.3122" transform="translate(195.86 237.688)" fill="#00B67A"/>
<path d="M237.779 257.622H224.591L220.531 245.083L216.448 257.622L203.26 257.598L213.925 265.357L209.842 277.896L220.507 270.137L231.173 277.896L227.113 265.357L237.779 257.622Z" fill="white"/>
<path d="M228.027 268.203L227.114 265.368L220.532 270.149L228.027 268.203Z" fill="#00B67A"/>
<rect width="26.2998" height="49.3122" transform="translate(252.545 237.688)" fill="#00B67A"/>
<rect width="19.7249" height="49.3122" transform="translate(278.845 237.688)" fill="#B9B9B9"/>
<path d="M295.316 258.034H281.859L277.717 245.239L273.55 258.034L260.093 258.009L270.976 265.926L266.809 278.721L277.692 270.804L288.575 278.721L284.433 265.926L295.316 258.034Z" fill="white"/>
<path d="M285.364 268.822L284.433 265.93L277.717 270.808L285.364 268.822Z" fill="#ECECEC"/>
</svg>
