<svg width="135" height="33" viewBox="0 0 135 33" fill="none" xmlns="http://www.w3.org/2000/svg">
<path d="M35.332 11.6936H48.9313V14.2253H43.5767V28.4967H40.6418V14.2253H35.3096L35.332 11.6936ZM48.3488 16.3313H50.858V18.6837H50.9028C50.9925 18.3476 51.1493 18.034 51.3733 17.7203C51.5974 17.4067 51.8662 17.1154 52.2023 16.869C52.5159 16.6001 52.8744 16.3985 53.2777 16.2416C53.6585 16.0848 54.0618 15.9952 54.4651 15.9952C54.7788 15.9952 55.0028 16.0176 55.1148 16.0176C55.2268 16.04 55.3613 16.0624 55.4733 16.0624V18.6389C55.2941 18.5941 55.0924 18.5717 54.8908 18.5493C54.6891 18.5269 54.5099 18.5045 54.3083 18.5045C53.8602 18.5045 53.4345 18.5941 53.0312 18.7733C52.628 18.9525 52.2919 19.2214 51.9782 19.5574C51.687 19.9159 51.4405 20.3416 51.2613 20.8569C51.0821 21.3722 50.9925 21.9771 50.9925 22.6492V28.4295H48.304L48.3488 16.3313ZM67.7956 28.4967H65.1519V26.794H65.1071C64.771 27.4213 64.2781 27.8918 63.6284 28.2727C62.9787 28.6535 62.3065 28.8328 61.6344 28.8328C60.0437 28.8328 58.8787 28.4519 58.1618 27.6453C57.4449 26.8612 57.0864 25.6514 57.0864 24.0607V16.3313H59.7749V23.7918C59.7749 24.8672 59.9765 25.629 60.4022 26.0546C60.8055 26.5027 61.388 26.7268 62.1273 26.7268C62.6874 26.7268 63.1579 26.6372 63.5388 26.4579C63.9196 26.2787 64.2333 26.0546 64.4573 25.7634C64.7038 25.4721 64.8606 25.1137 64.9726 24.7104C65.0847 24.3071 65.1295 23.859 65.1295 23.3886V16.3313H67.818V28.4967H67.7956ZM72.366 24.5984C72.4556 25.3825 72.7469 25.9202 73.2622 26.2563C73.7775 26.5699 74.4048 26.7268 75.1217 26.7268C75.3681 26.7268 75.6594 26.7044 75.9731 26.6596C76.2867 26.6148 76.6004 26.5475 76.8692 26.4355C77.1605 26.3235 77.3845 26.1667 77.5638 25.9426C77.743 25.7186 77.8326 25.4497 77.8102 25.1137C77.7878 24.7776 77.6758 24.4864 77.4293 24.2623C77.1829 24.0383 76.8916 23.8814 76.5332 23.7246C76.1747 23.5902 75.749 23.4782 75.2785 23.3886C74.808 23.2989 74.3376 23.1869 73.8447 23.0749C73.3518 22.9629 72.8589 22.8285 72.3884 22.6716C71.9179 22.5148 71.5146 22.3132 71.1338 22.0219C70.7753 21.7531 70.4617 21.417 70.26 20.9913C70.036 20.5656 69.924 20.0727 69.924 19.4454C69.924 18.7733 70.0808 18.2356 70.4168 17.7875C70.7305 17.3394 71.1562 16.981 71.6491 16.7121C72.142 16.4433 72.7021 16.2416 73.307 16.1296C73.9119 16.0176 74.4944 15.9728 75.0321 15.9728C75.6594 15.9728 76.2643 16.04 76.8244 16.1744C77.3845 16.3089 77.9222 16.5105 78.3703 16.8241C78.8408 17.1154 79.2217 17.5187 79.5129 17.9892C79.8266 18.4596 80.0058 19.0422 80.0954 19.7143H77.2949C77.1605 19.0646 76.8692 18.6389 76.4212 18.4148C75.9507 18.1908 75.4354 18.0788 74.8305 18.0788C74.6512 18.0788 74.4048 18.1012 74.1583 18.1236C73.8895 18.1684 73.6654 18.2132 73.419 18.3028C73.195 18.3924 72.9933 18.5269 72.8365 18.6837C72.6797 18.8405 72.59 19.0646 72.59 19.3334C72.59 19.6695 72.7021 19.9159 72.9261 20.1176C73.1501 20.3192 73.4414 20.476 73.8223 20.6328C74.1807 20.7673 74.6064 20.8793 75.0769 20.9689C75.5474 21.0585 76.0403 21.1705 76.5332 21.2826C77.0261 21.3946 77.4965 21.529 77.967 21.6858C78.4375 21.8427 78.8632 22.0443 79.2217 22.3356C79.5801 22.6044 79.8938 22.9405 80.1178 23.3438C80.3419 23.747 80.4539 24.2623 80.4539 24.8448C80.4539 25.5618 80.2971 26.1667 79.961 26.682C79.6249 27.1749 79.1993 27.6005 78.684 27.9142C78.1687 28.2278 77.5638 28.4519 76.9364 28.6087C76.2867 28.7431 75.6594 28.8328 75.0321 28.8328C74.2703 28.8328 73.5534 28.7431 72.9037 28.5639C72.254 28.3847 71.6715 28.1158 71.201 27.7798C70.7305 27.4213 70.3496 26.9956 70.0808 26.4579C69.8119 25.9426 69.6551 25.3153 69.6327 24.576H72.3436V24.5984H72.366ZM81.2156 16.3313H83.2544V12.657H85.9429V16.3088H88.3625V18.3028H85.9429V24.8C85.9429 25.0913 85.9653 25.3153 85.9877 25.5394C86.0101 25.741 86.0773 25.9202 86.1445 26.0546C86.2342 26.1891 86.3686 26.3011 86.5254 26.3683C86.7046 26.4355 86.9287 26.4803 87.2423 26.4803C87.4216 26.4803 87.6232 26.4803 87.8024 26.4579C87.9817 26.4355 88.1833 26.4131 88.3625 26.3683V28.4519C88.0713 28.4967 87.78 28.5191 87.4888 28.5415C87.1975 28.5863 86.9287 28.5863 86.615 28.5863C85.8981 28.5863 85.338 28.5191 84.9123 28.3847C84.4866 28.2503 84.1506 28.0486 83.9041 27.8022C83.6577 27.5333 83.5009 27.2197 83.4112 26.8388C83.3216 26.4579 83.2768 25.9874 83.2544 25.4945V18.3252H81.2156V16.2864V16.3313ZM90.2445 16.3313H92.7762V17.9892H92.821C93.2018 17.2722 93.7171 16.7793 94.3893 16.4657C95.0614 16.152 95.7783 15.9952 96.5849 15.9952C97.5482 15.9952 98.3772 16.152 99.0941 16.5105C99.8111 16.8466 100.394 17.2946 100.864 17.8995C101.335 18.4821 101.693 19.1766 101.917 19.9607C102.141 20.7449 102.276 21.5962 102.276 22.47C102.276 23.2989 102.163 24.0831 101.962 24.8448C101.738 25.6066 101.424 26.3011 100.998 26.8836C100.573 27.4661 100.035 27.9366 99.363 28.2951C98.6909 28.6535 97.9291 28.8328 97.0329 28.8328C96.6521 28.8328 96.2488 28.788 95.8679 28.7207C95.4871 28.6535 95.1062 28.5415 94.7477 28.3847C94.3893 28.2279 94.0532 28.0262 93.7619 27.7798C93.4483 27.5333 93.2018 27.2421 93.0002 26.9284H92.9554V32.9999H90.2669V16.3313H90.2445ZM99.6318 22.4252C99.6318 21.8875 99.5646 21.3498 99.4078 20.8345C99.2734 20.3192 99.0493 19.8711 98.7581 19.4678C98.4668 19.0646 98.1083 18.7509 97.7051 18.5045C97.2794 18.258 96.7865 18.146 96.2488 18.146C95.1286 18.146 94.2772 18.5269 93.6947 19.311C93.1346 20.0952 92.8434 21.1481 92.8434 22.4476C92.8434 23.0749 92.9106 23.635 93.0674 24.1503C93.2242 24.6656 93.4259 25.1137 93.7395 25.4945C94.0308 25.8754 94.3893 26.1667 94.8149 26.3907C95.2406 26.6147 95.7111 26.7268 96.2712 26.7268C96.8985 26.7268 97.3914 26.5923 97.8171 26.3459C98.2428 26.0995 98.5788 25.7634 98.8701 25.3825C99.1389 24.9792 99.3406 24.5312 99.4526 24.0159C99.5646 23.4782 99.6318 22.9629 99.6318 22.4252ZM104.359 11.6936H107.048V14.2253H104.359V11.6936ZM104.359 16.3313H107.048V28.4967H104.359V16.3313ZM109.445 11.6936H112.133V28.4967H109.445V11.6936ZM120.333 28.8328C119.37 28.8328 118.496 28.6759 117.734 28.3399C116.973 28.0038 116.345 27.5781 115.808 27.018C115.292 26.4579 114.889 25.7634 114.62 24.9792C114.351 24.1951 114.195 23.3213 114.195 22.4028C114.195 21.4842 114.329 20.6328 114.62 19.8487C114.889 19.0646 115.292 18.3924 115.808 17.8099C116.323 17.2498 116.973 16.8017 117.734 16.4881C118.496 16.1744 119.37 15.9952 120.333 15.9952C121.297 15.9952 122.17 16.152 122.932 16.4881C123.694 16.8017 124.321 17.2498 124.859 17.8099C125.374 18.37 125.777 19.0646 126.046 19.8487C126.315 20.6328 126.472 21.4842 126.472 22.4028C126.472 23.3437 126.338 24.1951 126.046 24.9792C125.755 25.7634 125.374 26.4355 124.859 27.018C124.344 27.5781 123.694 28.0262 122.932 28.3399C122.17 28.6535 121.319 28.8328 120.333 28.8328ZM120.333 26.7044C120.916 26.7044 121.453 26.5699 121.879 26.3235C122.327 26.0771 122.663 25.741 122.955 25.3377C123.246 24.9344 123.447 24.464 123.582 23.9711C123.716 23.4558 123.783 22.9405 123.783 22.4028C123.783 21.8875 123.716 21.3722 123.582 20.8569C123.447 20.3416 123.246 19.8935 122.955 19.4902C122.663 19.087 122.305 18.7733 121.879 18.5269C121.431 18.2804 120.916 18.146 120.333 18.146C119.751 18.146 119.213 18.2804 118.787 18.5269C118.339 18.7733 118.003 19.1094 117.712 19.4902C117.421 19.8935 117.219 20.3416 117.085 20.8569C116.95 21.3722 116.883 21.8875 116.883 22.4028C116.883 22.9405 116.95 23.4558 117.085 23.9711C117.219 24.4864 117.421 24.9344 117.712 25.3377C118.003 25.741 118.362 26.0771 118.787 26.3235C119.235 26.5923 119.751 26.7044 120.333 26.7044ZM127.279 16.3313H129.317V12.657H132.006V16.3088H134.425V18.3028H132.006V24.8C132.006 25.0913 132.028 25.3153 132.051 25.5394C132.073 25.741 132.14 25.9202 132.207 26.0546C132.297 26.1891 132.431 26.3011 132.588 26.3683C132.768 26.4355 132.992 26.4803 133.305 26.4803C133.484 26.4803 133.686 26.4803 133.865 26.4579C134.045 26.4355 134.246 26.4131 134.425 26.3683V28.4519C134.134 28.4967 133.843 28.5191 133.552 28.5415C133.26 28.5863 132.992 28.5863 132.678 28.5863C131.961 28.5863 131.401 28.5191 130.975 28.3847C130.55 28.2503 130.213 28.0486 129.967 27.8022C129.721 27.5333 129.564 27.2197 129.474 26.8388C129.385 26.4579 129.34 25.9874 129.317 25.4945V18.3252H127.279V16.2864V16.3313Z" fill="#022A1C"/>
<path d="M32.1947 11.695H19.8949L16.1086 0L12.2999 11.695L0 11.6726L9.94743 18.9091L6.13873 30.604L16.0862 23.3675L26.0336 30.604L22.2473 18.9091L32.1947 11.695Z" fill="#00B67A"/>
<path d="M23.0985 21.5519L22.2471 18.9082L16.1084 23.3666L23.0985 21.5519Z" fill="#005128"/>
</svg>
